<svg id="Flat" height="512" viewBox="0 0 512 512" width="512" xmlns="http://www.w3.org/2000/svg"><path d="m336 184v-80h-160v80a32 32 0 0 1 -32 32h-16v272h256v-272h-16a32 32 0 0 1 -32-32z" fill="#ffb632"/><path d="m208 24h96v32h-96z" fill="#ffb632"/><path d="m208 24-32 31.999v48.001h32z" fill="#ffe76c"/><path d="m80 296h48v32h-48z" fill="#e09f2c"/><path d="m80 296-32 31.999v160.001h32z" fill="#ffb632"/><path d="m384 296h48v32h-48z" fill="#e09f2c" transform="matrix(-1 0 0 -1 816 624)"/><path d="m432 296 32 31.999v160.001h-32z" fill="#ffb632"/><g fill="#ffe76c"><path d="m304 24v80h32v-48.001z"/><path d="m224 392h-48a16 16 0 0 1 -16-16v-80h80v80a16 16 0 0 1 -16 16z"/><path d="m336 392h-48a16 16 0 0 1 -16-16v-80h80v80a16 16 0 0 1 -16 16z"/><path d="m176 104h160v32h-160z"/></g><path d="m160 296h80v32h-80z" fill="#e09f2c"/><path d="m272 296h80v32h-80z" fill="#e09f2c"/><path d="m128 448h256v16h-256z" fill="#ffe76c"/></svg>