<svg id="Flat" height="512" viewBox="0 0 512 512" width="512" xmlns="http://www.w3.org/2000/svg"><circle cx="336" cy="288" fill="#b37a60" r="152"/><circle cx="336" cy="288" fill="#e9eef2" r="120"/><circle cx="336" cy="288" fill="#b37a60" r="40"/><path d="m376 272a24 24 0 1 1 24-24 24.027 24.027 0 0 1 -24 24zm0-32a8 8 0 1 0 8 8 8.009 8.009 0 0 0 -8-8z" fill="#eb423f"/><path d="m328 416a24 24 0 1 1 24-24 24.027 24.027 0 0 1 -24 24zm0-32a8 8 0 1 0 8 8 8.009 8.009 0 0 0 -8-8z" fill="#eb423f"/><path d="m376 296h16a32 32 0 0 1 32 32v16a0 0 0 0 1 0 0h-16a32 32 0 0 1 -32-32v-16a0 0 0 0 1 0 0z" fill="#cfdb8c" transform="matrix(0 1 -1 0 720 -80)"/><path d="m264 312h16a32 32 0 0 1 32 32v16a0 0 0 0 1 0 0h-16a32 32 0 0 1 -32-32v-16a0 0 0 0 1 0 0z" fill="#cfdb8c" transform="matrix(-1 0 0 -1 576 672)"/><circle cx="176" cy="224" fill="#d49073" r="152"/><circle cx="176" cy="224" fill="#e9eef2" r="40"/><circle cx="104" cy="184" fill="#b37a60" r="8"/><circle cx="248" cy="152" fill="#b37a60" r="8"/><circle cx="376" cy="376" fill="#734b39" r="8"/><circle cx="424" cy="264" fill="#734b39" r="8"/><circle cx="360" cy="200" fill="#734b39" r="8"/><g fill="#b37a60"><circle cx="72" cy="216" r="8"/><circle cx="160" cy="328" r="8"/><circle cx="264" cy="272" r="8"/><circle cx="72" cy="184" r="8"/></g></svg>