<svg id="Flat" height="512" viewBox="0 0 512 512" width="512" xmlns="http://www.w3.org/2000/svg"><path d="m488 232v16a32 32 0 0 1 -32 32h-400a32 32 0 0 1 -32-32v-16a96 96 0 0 1 96-96 16 16 0 0 1 16 16v32a16 16 0 0 0 16 16h16a16 16 0 0 0 16-16v-32a16 16 0 0 1 16-16h16a16 16 0 0 1 16 16v32a16 16 0 0 0 16 16h16a16 16 0 0 0 16-16v-32a16 16 0 0 1 16-16h16a16 16 0 0 1 16 16v32a16 16 0 0 0 16 16h16a16 16 0 0 0 16-16v-32a16 16 0 0 1 16-16 96 96 0 0 1 96 96z" fill="#b37a60"/><path d="m136 152h48a0 0 0 0 1 0 0v32a16 16 0 0 1 -16 16h-16a16 16 0 0 1 -16-16v-32a0 0 0 0 1 0 0z" fill="#f7cca9"/><path d="m232 152h48a0 0 0 0 1 0 0v32a16 16 0 0 1 -16 16h-16a16 16 0 0 1 -16-16v-32a0 0 0 0 1 0 0z" fill="#f7cca9"/><path d="m328 152h48a0 0 0 0 1 0 0v32a16 16 0 0 1 -16 16h-16a16 16 0 0 1 -16-16v-32a0 0 0 0 1 0 0z" fill="#f7cca9"/><g fill="#d49073"><circle cx="72" cy="232" r="8"/><circle cx="104" cy="232" r="8"/><circle cx="72" cy="200" r="8"/><path d="m472 328v16a32 32 0 0 1 -32 32h-304a32 32 0 0 1 -32-32v-16a96 96 0 0 1 96-96 16 16 0 0 1 16 16v32a16 16 0 0 0 16 16h16a16 16 0 0 0 16-16v-32a16 16 0 0 1 16-16h16a16 16 0 0 1 16 16v32a16 16 0 0 0 16 16h16a16 16 0 0 0 16-16v-32a16 16 0 0 1 16-16 96 96 0 0 1 96 96z"/></g><path d="m216 248h48a0 0 0 0 1 0 0v32a16 16 0 0 1 -16 16h-16a16 16 0 0 1 -16-16v-32a0 0 0 0 1 0 0z" fill="#f7cca9"/><path d="m312 248h48a0 0 0 0 1 0 0v32a16 16 0 0 1 -16 16h-16a16 16 0 0 1 -16-16v-32a0 0 0 0 1 0 0z" fill="#f7cca9"/><circle cx="424" cy="328" fill="#b37a60" r="8"/><circle cx="392" cy="328" fill="#b37a60" r="8"/><circle cx="424" cy="296" fill="#b37a60" r="8"/></svg>