<svg id="Flat" height="512" viewBox="0 0 512 512" width="512" xmlns="http://www.w3.org/2000/svg"><path d="m176 64v16a16 16 0 0 0 16 16v32h80v-32a16 16 0 0 0 16-16v-16a16 16 0 0 0 -16-16h-80a16 16 0 0 0 -16 16z" fill="#b37a60"/><path d="m360 208h56v32h-56z" fill="#b37a60"/><path d="m40 240h320v192h-320z" fill="#f7cca9"/><path d="m72 240h144v160h-144z" fill="#3397e8"/><path d="m24 432h464v32h-464z" fill="#8c5237"/><path d="m24 240h48a0 0 0 0 1 0 0v16a16 16 0 0 1 -16 16h-16a16 16 0 0 1 -16-16v-16a0 0 0 0 1 0 0z" fill="#c7312e"/><path d="m88 272a16 16 0 0 1 -16-16v-16h32v16a16 16 0 0 1 -16 16z" fill="#dadcde"/><path d="m120 272a16 16 0 0 1 -16-16v-16h32v16a16 16 0 0 1 -16 16z" fill="#c7312e"/><path d="m152 272a16 16 0 0 1 -16-16v-16h32v16a16 16 0 0 1 -16 16z" fill="#dadcde"/><path d="m184 272a16 16 0 0 1 -16-16v-16h32v16a16 16 0 0 1 -16 16z" fill="#c7312e"/><path d="m216 272a16 16 0 0 1 -16-16v-16h32v16a16 16 0 0 1 -16 16z" fill="#dadcde"/><path d="m248 272a16 16 0 0 1 -16-16v-16h32v16a16 16 0 0 1 -16 16z" fill="#c7312e"/><path d="m280 272a16 16 0 0 1 -16-16v-16h32v16a16 16 0 0 1 -16 16z" fill="#dadcde"/><path d="m312 272a16 16 0 0 1 -16-16v-16h32v16a16 16 0 0 1 -16 16z" fill="#c7312e"/><path d="m328 240h48a0 0 0 0 1 0 0v16a16 16 0 0 1 -16 16h-16a16 16 0 0 1 -16-16v-16a0 0 0 0 1 0 0z" fill="#dadcde"/><path d="m360 176h-320l-16 64h352z" fill="#eb423f"/><path d="m72 128h256a32 32 0 0 1 32 32v16a0 0 0 0 1 0 0h-320a0 0 0 0 1 0 0v-16a32 32 0 0 1 32-32z" fill="#8c5237"/><path d="m464 336h-64l-8 96h80z" fill="#b37a60"/><path d="m280 304h16a32 32 0 0 1 32 32v96a0 0 0 0 1 0 0h-80a0 0 0 0 1 0 0v-96a32 32 0 0 1 32-32z" fill="#b37a60"/><path d="m72 328h144v16h-144z" fill="#8c5237"/><circle cx="312" cy="368" fill="#966651" r="8"/><path d="m88 368h16a16 16 0 0 1 16 16v16a0 0 0 0 1 0 0h-48a0 0 0 0 1 0 0v-16a16 16 0 0 1 16-16z" fill="#d49073"/><path d="m136 368h16a16 16 0 0 1 16 16v16a0 0 0 0 1 0 0h-48a0 0 0 0 1 0 0v-16a16 16 0 0 1 16-16z" fill="#b37a60"/><path d="m184 368h16a16 16 0 0 1 16 16v16a0 0 0 0 1 0 0h-48a0 0 0 0 1 0 0v-16a16 16 0 0 1 16-16z" fill="#d49073"/><path d="m184 304h16a16 16 0 0 1 16 16v16a0 0 0 0 1 0 0h-48a0 0 0 0 1 0 0v-16a16 16 0 0 1 16-16z" fill="#b37a60"/><circle cx="88" cy="320" fill="#d49073" r="16"/><circle cx="120" cy="320" fill="#b37a60" r="16"/><circle cx="152" cy="320" fill="#d49073" r="16"/><path d="m112 64v16a16 16 0 0 0 16 16v32h64v-32a16 16 0 0 0 16-16v-16a16 16 0 0 0 -16-16h-64a16 16 0 0 0 -16 16z" fill="#f7cca9"/><path d="m264 104h-24a8 8 0 0 1 0-16h24a8 8 0 0 1 0 16z" fill="#966651"/><g fill="#e9eef2"><path d="m72 176h32v64h-32z"/><path d="m136 176h32v64h-32z"/><path d="m200 176h32v64h-32z"/><path d="m264 176h32v64h-32z"/><path d="m376 240h-48v-64h32z"/></g><circle cx="448" cy="224" fill="#8c5237" r="40"/><path d="m440 376h-16a8 8 0 0 1 0-16h16a8 8 0 0 1 0 16z" fill="#966651"/><path d="m440 408h-16a8 8 0 0 1 0-16h16a8 8 0 0 1 0 16z" fill="#966651"/></svg>