<svg id="Flat" height="512" viewBox="0 0 512 512" width="512" xmlns="http://www.w3.org/2000/svg"><rect fill="#cfdb8c" height="90.51" rx="16" transform="matrix(.707 -.707 .707 .707 -214.323 234.579)" width="135.765" x="108.118" y="330.745"/><rect fill="#eb423f" height="128" rx="16" transform="matrix(0 1 -1 0 584 264)" width="96" x="112" y="360"/><path d="m272 352h48v144h-48z" fill="#eb423f" transform="matrix(0 1 -1 0 720 128)"/><rect fill="#ffe76c" height="128" rx="16" width="96" x="80" y="344"/><path d="m104 216h48v128h-48z" fill="#ffe76c"/><path d="m207.431 265.373h113.137v45.255h-113.137z" fill="#cfdb8c" transform="matrix(.707 -.707 .707 .707 -126.323 271.029)"/><path d="m424 360a64 64 0 1 1 -64 64 64 64 0 0 1 64-64" fill="#eb423f"/><circle cx="424" cy="424" fill="#c7312e" r="32"/><path d="m360 120a80 80 0 1 1 -80 80 80 80 0 0 1 80-80" fill="#cfdb8c"/><path d="m128 24a104 104 0 1 1 -104 104 104 104 0 0 1 104-104" fill="#ffe76c"/><circle cx="128" cy="128" fill="#ffb632" r="72"/><circle cx="360" cy="200" fill="#a0ab65" r="48"/><circle cx="128" cy="424" fill="#ffb632" r="16"/></svg>