<svg id="Flat" height="512" viewBox="0 0 512 512" width="512" xmlns="http://www.w3.org/2000/svg"><rect fill="#e9eef2" height="272" rx="16" width="464" x="24" y="104"/><rect fill="#dadcde" height="208" rx="16" width="400" x="56" y="136"/><g fill="#c3c6c7"><path d="m440 408h-368a16 16 0 0 1 -16-16v-16h400v16a16 16 0 0 1 -16 16z"/><path d="m455.46 147.86-33.8 33.8a8 8 0 0 1 -11.32-11.32l33.8-33.8a16.023 16.023 0 0 1 11.32 11.32z"/><path d="m101.66 181.66a8.015 8.015 0 0 1 -11.32 0l-33.8-33.8a16.023 16.023 0 0 1 11.32-11.32l33.8 33.8a8.015 8.015 0 0 1 0 11.32z"/><path d="m88 168h336v176h-336z"/></g></svg>