<svg id="Flat" height="512" viewBox="0 0 512 512" width="512" xmlns="http://www.w3.org/2000/svg"><rect fill="#e9eef2" height="272" rx="16" width="464" x="24" y="152"/><rect fill="#dadcde" height="208" rx="16" width="400" x="56" y="184"/><path d="m440 456h-368a16 16 0 0 1 -16-16v-16h400v16a16 16 0 0 1 -16 16z" fill="#c3c6c7"/><path d="m456 216h-400v-16a16 16 0 0 1 16-16h368a16 16 0 0 1 16 16z" fill="#c3c6c7"/><circle cx="376" cy="328" r="8"/><circle cx="344" cy="328" r="8"/><circle cx="376" cy="296" r="8"/><path d="m256 224a8 8 0 0 1 -8-8v-16a24.028 24.028 0 0 1 24-24h48a24 24 0 0 0 0-48h-128a40.045 40.045 0 0 1 -40-40v-32a8 8 0 0 1 16 0v32a24.028 24.028 0 0 0 24 24h128a40 40 0 0 1 0 80h-48a8.009 8.009 0 0 0 -8 8v16a8 8 0 0 1 -8 8z" fill="#b6b9ba"/><path d="m328 280v-16a16 16 0 0 1 16-16h16a64 64 0 0 1 64 64v16a32 32 0 0 1 -32 32h-272a32 32 0 0 1 -32-32v-16a64 64 0 0 1 64-64h16a16 16 0 0 1 16 16v16a16 16 0 0 0 16 16h16a16 16 0 0 0 16-16v-16a16 16 0 0 1 16-16h16a16 16 0 0 1 16 16v16a16 16 0 0 0 16 16h16a16 16 0 0 0 16-16z" fill="#d49073"/><g fill="#f7cca9"><path d="m184 264h48a0 0 0 0 1 0 0v16a16 16 0 0 1 -16 16h-16a16 16 0 0 1 -16-16v-16a0 0 0 0 1 0 0z"/><path d="m280 264h48a0 0 0 0 1 0 0v16a16 16 0 0 1 -16 16h-16a16 16 0 0 1 -16-16v-16a0 0 0 0 1 0 0z"/></g></svg>