<svg id="Flat" height="512" viewBox="0 0 512 512" width="512" xmlns="http://www.w3.org/2000/svg"><circle cx="128" cy="136" fill="#d49073" r="104"/><circle cx="384" cy="136" fill="#d49073" r="104"/><path d="m236 376c0 6.161-8.476 11.507-9.5 17.374-1.057 6.033 5.065 13.946 3.016 19.574-2.085 5.728-11.88 7.849-14.893 13.056-3.041 5.256 0 14.8-3.886 19.42s-13.821 3.291-18.456 7.185-5.012 13.9-10.268 16.936c-5.207 3.013-14.071-1.634-19.8.451-5.627 2.049-9.423 11.324-15.457 12.381-5.869 1.023-12.595-6.377-18.756-6.377s-12.887 7.4-18.754 6.377c-6.034-1.057-9.83-10.332-15.457-12.381-5.728-2.085-14.592 2.561-19.8-.451-5.256-3.041-5.646-13.054-10.268-16.937s-14.562-2.549-18.456-7.185-.844-14.163-3.885-19.423c-3.013-5.207-12.808-7.329-14.893-13.056-2.049-5.628 4.073-13.54 3.016-19.574-1.027-5.863-9.503-11.209-9.503-17.37s8.476-11.507 9.5-17.374c1.057-6.033-5.065-13.946-3.016-19.574 2.088-5.728 11.883-7.852 14.896-13.052 3.041-5.256 0-14.8 3.886-19.42s13.821-3.291 18.456-7.184 5.012-13.9 10.268-16.937c5.207-3.013 14.071 1.634 19.8-.451 5.627-2.049 9.423-11.324 15.457-12.381 5.866-1.027 12.592 6.373 18.753 6.373s12.887-7.4 18.754-6.377c6.034 1.057 9.83 10.332 15.457 12.381 5.728 2.085 14.592-2.561 19.8.451 5.256 3.041 5.646 13.054 10.268 16.937s14.562 2.549 18.456 7.185.845 14.163 3.886 19.419c3.013 5.208 12.808 7.329 14.893 13.056 2.049 5.628-4.073 13.541-3.016 19.574 1.026 5.867 9.502 11.213 9.502 17.374z" fill="#d49073"/><path d="m492 376c0 6.161-8.476 11.507-9.5 17.374-1.057 6.033 5.065 13.946 3.016 19.574-2.085 5.728-11.88 7.849-14.893 13.056-3.041 5.256 0 14.8-3.886 19.42s-13.821 3.291-18.456 7.185-5.012 13.9-10.268 16.936c-5.207 3.013-14.071-1.634-19.8.451-5.627 2.049-9.423 11.324-15.457 12.381-5.869 1.023-12.595-6.377-18.756-6.377s-12.887 7.4-18.754 6.377c-6.034-1.057-9.83-10.332-15.457-12.381-5.728-2.085-14.592 2.561-19.8-.451-5.256-3.041-5.646-13.054-10.268-16.937s-14.562-2.549-18.456-7.185-.844-14.163-3.885-19.423c-3.013-5.207-12.808-7.329-14.893-13.056-2.049-5.628 4.073-13.54 3.016-19.574-1.027-5.867-9.5-11.213-9.5-17.374s8.476-11.507 9.5-17.374c1.057-6.033-5.065-13.946-3.016-19.574 2.085-5.728 11.88-7.849 14.893-13.056 3.041-5.256 0-14.8 3.886-19.42s13.821-3.291 18.456-7.184 5.012-13.9 10.268-16.937c5.207-3.013 14.071 1.634 19.8-.451 5.627-2.049 9.423-11.324 15.457-12.381 5.866-1.019 12.592 6.381 18.753 6.381s12.887-7.4 18.754-6.377c6.034 1.057 9.83 10.332 15.457 12.381 5.728 2.085 14.592-2.561 19.8.451 5.256 3.041 5.646 13.054 10.268 16.937s14.562 2.549 18.456 7.185.845 14.163 3.886 19.419c3.013 5.208 12.808 7.329 14.893 13.056 2.049 5.628-4.073 13.541-3.016 19.574 1.026 5.867 9.502 11.213 9.502 17.374z" fill="#d49073"/><circle cx="128" cy="136" fill="#eb423f" r="40"/><circle cx="384" cy="376" fill="#eb423f" r="48"/><g fill="#b37a60"><circle cx="384" cy="88" r="8"/><circle cx="432" cy="88" r="8"/><circle cx="336" cy="88" r="8"/><circle cx="336" cy="136" r="8"/><circle cx="336" cy="184" r="8"/><circle cx="384" cy="136" r="8"/><circle cx="432" cy="136" r="8"/><circle cx="384" cy="184" r="8"/><circle cx="432" cy="184" r="8"/><circle cx="128" cy="328" r="8"/><circle cx="176" cy="328" r="8"/><circle cx="80" cy="328" r="8"/><circle cx="384" cy="296" r="8"/><circle cx="384" cy="456" r="8"/><circle cx="464" cy="376" r="8"/><circle cx="304" cy="376" r="8"/><circle cx="80" cy="376" r="8"/><circle cx="80" cy="424" r="8"/><circle cx="128" cy="376" r="8"/><circle cx="176" cy="376" r="8"/><circle cx="128" cy="424" r="8"/><circle cx="176" cy="424" r="8"/></g></svg>