<svg id="Flat" height="512" viewBox="0 0 512 512" width="512" xmlns="http://www.w3.org/2000/svg"><path d="m360 408h-16a32 32 0 0 1 -32-32v-320a32 32 0 0 1 32-32h16a96 96 0 0 1 96 96v16a16 16 0 0 1 -16 16h-32a16 16 0 0 0 -16 16v16a16 16 0 0 0 16 16h32a16 16 0 0 1 16 16v16a16 16 0 0 1 -16 16h-32a16 16 0 0 0 -16 16v16a16 16 0 0 0 16 16h32a16 16 0 0 1 16 16 96 96 0 0 1 -96 96z" fill="#d49073"/><path d="m392 152h48a0 0 0 0 1 0 0v32a16 16 0 0 1 -16 16h-16a16 16 0 0 1 -16-16v-32a0 0 0 0 1 0 0z" fill="#f7cca9" transform="matrix(0 1 -1 0 592 -240)"/><path d="m392 248h48a0 0 0 0 1 0 0v32a16 16 0 0 1 -16 16h-16a16 16 0 0 1 -16-16v-32a0 0 0 0 1 0 0z" fill="#f7cca9" transform="matrix(0 1 -1 0 688 -144)"/><path d="m56 168v64a32 32 0 0 0 32 32v64a16 16 0 0 0 16 16h192a16 16 0 0 0 16-16v-64a32 32 0 0 0 32-32v-64a64 64 0 0 0 -64-64h-160a64 64 0 0 0 -64 64z" fill="#b37a60"/><path d="m304 272h-24a8 8 0 0 1 0-16h24a8 8 0 0 1 0 16z" fill="#966651"/><path d="m56 168v64a32 32 0 0 0 32 32v64a16 16 0 0 0 16 16h160a16 16 0 0 0 16-16v-64a32 32 0 0 0 32-32v-64a64 64 0 0 0 -64-64h-128a64 64 0 0 0 -64 64z" fill="#d49073"/><path d="m88 168v48a16 16 0 0 0 16 16h16v80h128v-80h16a16 16 0 0 0 16-16v-48a32 32 0 0 0 -32-32h-128a32 32 0 0 0 -32 32z" fill="#f7cca9"/><g fill="#d49073"><circle cx="120" cy="168" r="8"/><circle cx="120" cy="200" r="8"/><circle cx="152" cy="168" r="8"/></g><rect fill="#ad6643" height="48" rx="16" width="464" x="24" y="296"/><path d="m56 344h400a0 0 0 0 1 0 0v48a96 96 0 0 1 -96 96h-208a96 96 0 0 1 -96-96v-48a0 0 0 0 1 0 0z" fill="#8c5237"/><path d="m450.53 424a95.669 95.669 0 0 1 -18.98 32h-351.1a95.669 95.669 0 0 1 -18.98-32z" fill="#ad6643"/><path d="m304 424-168-128h336z" fill="#eb423f"/><path d="m304 392-128-96h256z" fill="#c7312e"/></svg>