<svg id="Flat" height="512" viewBox="0 0 512 512" width="512" xmlns="http://www.w3.org/2000/svg"><path d="m152 96h48a128 128 0 0 1 128 128v16a64 64 0 0 1 -64 64h-176a64 64 0 0 1 -64-64v-16a128 128 0 0 1 128-128z" fill="#b37a60"/><g fill="#d49073"><path d="m312 208h48a128 128 0 0 1 128 128v16a64 64 0 0 1 -64 64h-176a64 64 0 0 1 -64-64v-16a128 128 0 0 1 128-128z"/><circle cx="72" cy="256" r="8"/><circle cx="104" cy="256" r="8"/><circle cx="72" cy="224" r="8"/></g><path d="m376 256h-80a64 64 0 0 0 -64 64v80a16 16 0 0 0 16 16 16 16 0 0 0 16-16v-32h32a16 16 0 0 0 16 16 16 16 0 0 0 16-16h32a16 16 0 0 0 16 16 16 16 0 0 0 16-16h16a32 32 0 0 0 32-32v-16a64 64 0 0 0 -64-64z" fill="#f7cca9"/></svg>