<svg id="Flat" height="512" viewBox="0 0 512 512" width="512" xmlns="http://www.w3.org/2000/svg"><path d="m72 88v80a16 16 0 0 0 16 16v64a16 16 0 0 0 16 16h144a16 16 0 0 0 16-16v-64a16 16 0 0 0 16-16v-80a64 64 0 0 0 -64-64h-80a64 64 0 0 0 -64 64z" fill="#b37a60"/><path d="m72 184v112a16 16 0 0 0 16 16h176a16 16 0 0 0 16-16v-112a64 64 0 0 0 -64-64h-80a64 64 0 0 0 -64 64z" fill="#e0b999"/><path d="m280 88v80a16 16 0 0 0 16 16v64a16 16 0 0 0 16 16h144a16 16 0 0 0 16-16v-64a16 16 0 0 0 16-16v-80a64 64 0 0 0 -64-64h-80a64 64 0 0 0 -64 64z" fill="#966651"/><path d="m280 184v80a16 16 0 0 0 16 16v64a16 16 0 0 0 16 16h144a16 16 0 0 0 16-16v-64a16 16 0 0 0 16-16v-80a64 64 0 0 0 -64-64h-80a64 64 0 0 0 -64 64z" fill="#b37a60"/><path d="m280 280v32a16 16 0 0 0 16 16v64a16 16 0 0 0 16 16h144a16 16 0 0 0 16-16v-64a16 16 0 0 0 16-16v-32a64 64 0 0 0 -64-64h-80a64 64 0 0 0 -64 64z" fill="#f7cca9"/><path d="m24 264v80a16 16 0 0 0 16 16v64a16 16 0 0 0 16 16h144a16 16 0 0 0 16-16v-64a16 16 0 0 0 16-16v-80a64 64 0 0 0 -64-64h-80a64 64 0 0 0 -64 64z" fill="#d49073"/><path d="m24 360v32a16 16 0 0 0 16 16v64a16 16 0 0 0 16 16h144a16 16 0 0 0 16-16v-64a16 16 0 0 0 16-16v-32a64 64 0 0 0 -64-64h-80a64 64 0 0 0 -64 64z" fill="#f7cca9"/><g fill="#d49073"><circle cx="152" cy="456" r="8"/><circle cx="184" cy="456" r="8"/><circle cx="184" cy="424" r="8"/><circle cx="408" cy="376" r="8"/><circle cx="440" cy="376" r="8"/><circle cx="440" cy="344" r="8"/></g><path d="m440 96a8 8 0 0 1 -8-8v-32a8 8 0 0 1 16 0v32a8 8 0 0 1 -8 8z" fill="#b37a60"/><path d="m232 96a8 8 0 0 1 -8-8v-32a8 8 0 0 1 16 0v32a8 8 0 0 1 -8 8z" fill="#966651"/><path d="m184 272a8 8 0 0 1 -8-8v-32a8 8 0 0 1 16 0v32a8 8 0 0 1 -8 8z" fill="#b37a60"/><path d="m440 192a8 8 0 0 1 -8-8v-32a8 8 0 0 1 16 0v32a8 8 0 0 1 -8 8z" fill="#966651"/></svg>