<svg id="Flat" height="512" viewBox="0 0 512 512" width="512" xmlns="http://www.w3.org/2000/svg"><path d="m24 344h464v32h-464z" fill="#8c5237"/><path d="m104 136h368a0 0 0 0 1 0 0v208a0 0 0 0 1 0 0h-432a0 0 0 0 1 0 0v-144a64 64 0 0 1 64-64z" fill="#ffb632"/><path d="m40 200v96.237a15.761 15.761 0 0 0 15.759 15.763h.48a15.76 15.76 0 0 0 15.761-15.763v-32.237a16 16 0 0 1 16-16 16 16 0 0 1 16 16v.244a15.76 15.76 0 0 0 15.762 15.756h.479a15.76 15.76 0 0 0 15.759-15.761v-64.239a16 16 0 0 1 16-16h32v-48h-80a64 64 0 0 0 -64 64z" fill="#ffe76c"/><path d="m184 136h288v48h-288z" fill="#e9eef2"/><path d="m472 184v160h-288v-96l80-64z" fill="#dadcde"/><path d="m264 184v64h-80z" fill="#e9eef2"/><path d="m264 184v64h-80z" fill="#e9eef2"/><path d="m408 312h-80a16 16 0 0 1 -16-16 16 16 0 0 1 16-16h80a16 16 0 0 1 16 16 16 16 0 0 1 -16 16z" fill="#7e8589"/><path d="m328 248h80v32h-80z" fill="#e9eef2"/><path d="m312 280h16v-32h-16a16 16 0 0 0 -16 16 16 16 0 0 0 16 16z" fill="#c3c6c7"/><path d="m344 216h16a0 0 0 0 1 0 0v32a0 0 0 0 1 0 0h-32a0 0 0 0 1 0 0v-16a16 16 0 0 1 16-16z" fill="#7e8589" transform="matrix(0 1 -1 0 576 -112)"/><path d="m376 216h32a0 0 0 0 1 0 0v32a0 0 0 0 1 0 0h-16a16 16 0 0 1 -16-16v-16a0 0 0 0 1 0 0z" fill="#7e8589" transform="matrix(0 1 -1 0 624 -160)"/><path d="m424 248h-16v32h16a16 16 0 0 0 16-16 16 16 0 0 0 -16-16z" fill="#c3c6c7"/><path d="m216 280h48v32h-48z" fill="#7e8589"/><g fill="#6a7073"><circle cx="344" cy="304" r="8"/><circle cx="392" cy="304" r="8"/></g></svg>