<svg id="Flat" height="512" viewBox="0 0 512 512" width="512" xmlns="http://www.w3.org/2000/svg"><path d="m24 416h464v32h-464z" fill="#8c5237"/><path d="m352 107.08v4.92a16 16 0 0 1 -16 16h-32a16 16 0 0 1 -16-16v-4.92a16.126 16.126 0 0 1 1.14-5.94l10.84-27.08a15.989 15.989 0 0 1 14.85-10.06h10.34a15.989 15.989 0 0 1 14.85 10.06l10.84 27.08a16.126 16.126 0 0 1 1.14 5.94z" fill="#eb423f"/><path d="m328 112v16h-16v-16a8 8 0 0 1 16 0z" fill="#c7312e"/><path d="m368 112h16a32 32 0 0 1 32 32v16a0 0 0 0 1 0 0h-16a32 32 0 0 1 -32-32v-16a0 0 0 0 1 0 0z" fill="#cfdb8c" transform="matrix(0 1 -1 0 528 -256)"/><path d="m96 224h304v192h-304z" fill="#f7cca9"/><path d="m400 368v-32h-304v32h32a16 16 0 0 0 32 0z" fill="#966651"/><path d="m96 256v32h144a16 16 0 0 0 16 16 16 16 0 0 0 16-16h64v32a16 16 0 0 0 16 16 16 16 0 0 0 16-16v-32h32v-32z" fill="#966651"/><path d="m80 208a16 16 0 0 0 16 16h304v96a16 16 0 0 0 16 16 16 16 0 0 0 16-16v-112a16 16 0 0 0 -16-16h-320a16 16 0 0 0 -16 16z" fill="#734b39"/><path d="m368 160a32 32 0 0 0 -32-32h-32a32 32 0 0 0 -32 32h-8a16 16 0 0 0 -16 16 16 16 0 0 0 16 16h112a16 16 0 0 0 16-16 16 16 0 0 0 -16-16z" fill="#e9eef2"/><path d="m304 168h-24a8 8 0 0 1 0-16h24a8 8 0 0 1 0 16z" fill="#dadcde"/><g fill="#eb423f"><circle cx="272" cy="144" r="16"/><circle cx="232" cy="176" r="16"/></g></svg>