<svg id="Flat" height="512" viewBox="0 0 512 512" width="512" xmlns="http://www.w3.org/2000/svg"><path d="m24 400h464v32h-464z" fill="#8c5237"/><path d="m80 192h352v208h-352z" fill="#f7cca9"/><path d="m432 240h-352v32h288a16 16 0 0 0 16 16 16 16 0 0 0 16-16h32z" fill="#966651"/><path d="m80 144a32 32 0 0 0 -32 32v128a16 16 0 0 0 16 16 16 16 0 0 0 16-16v-96a16 16 0 0 1 16-16 16 16 0 0 1 16 16v16a16 16 0 0 0 16 16 16 16 0 0 0 16-16v-16a16 16 0 0 1 16-16 16 16 0 0 1 16 16v96a16 16 0 0 0 16 16 16 16 0 0 0 16-16v-96a16 16 0 0 1 16-16 16 16 0 0 1 16 16v16a16 16 0 0 0 16 16 16 16 0 0 0 16-16v-16a16 16 0 0 1 16-16 16 16 0 0 1 16 16v96a16 16 0 0 0 16 16 16 16 0 0 0 16-16v-96a16 16 0 0 1 16-16 16 16 0 0 1 16 16v16a16 16 0 0 0 16 16 16 16 0 0 0 16-16v-16a16 16 0 0 1 16-16 16 16 0 0 1 16 16v96a16 16 0 0 0 16 16 16 16 0 0 0 16-16v-128a32 32 0 0 0 -32-32z" fill="#734b39"/><path d="m80 320v32h32a16 16 0 0 0 16 16 16 16 0 0 0 16-16h288v-32z" fill="#966651"/><g fill="#c7312e"><circle cx="160" cy="128" r="16"/><circle cx="256" cy="128" r="16"/><circle cx="352" cy="128" r="16"/></g><path d="m144 123.08v4.92a16 16 0 0 1 -16 16h-32a16 16 0 0 1 -16-16v-4.92a16.126 16.126 0 0 1 1.14-5.94l10.84-27.08a15.989 15.989 0 0 1 14.85-10.06h10.34a15.989 15.989 0 0 1 14.85 10.06l10.84 27.08a16.126 16.126 0 0 1 1.14 5.94z" fill="#eb423f"/><path d="m120 128v16h-16v-16a8 8 0 0 1 16 0z" fill="#c7312e"/><path d="m240 123.08v4.92a16 16 0 0 1 -16 16h-32a16 16 0 0 1 -16-16v-4.92a16.126 16.126 0 0 1 1.14-5.94l10.84-27.08a15.989 15.989 0 0 1 14.85-10.06h10.34a15.989 15.989 0 0 1 14.85 10.06l10.84 27.08a16.126 16.126 0 0 1 1.14 5.94z" fill="#eb423f"/><path d="m216 128v16h-16v-16a8 8 0 0 1 16 0z" fill="#c7312e"/><path d="m336 123.08v4.92a16 16 0 0 1 -16 16h-32a16 16 0 0 1 -16-16v-4.92a16.126 16.126 0 0 1 1.14-5.94l10.84-27.08a15.989 15.989 0 0 1 14.85-10.06h10.34a15.989 15.989 0 0 1 14.85 10.06l10.84 27.08a16.126 16.126 0 0 1 1.14 5.94z" fill="#eb423f"/><path d="m312 128v16h-16v-16a8 8 0 0 1 16 0z" fill="#c7312e"/><path d="m432 123.08v4.92a16 16 0 0 1 -16 16h-32a16 16 0 0 1 -16-16v-4.92a16.126 16.126 0 0 1 1.14-5.94l10.84-27.08a15.989 15.989 0 0 1 14.85-10.06h10.34a15.989 15.989 0 0 1 14.85 10.06l10.84 27.08a16.126 16.126 0 0 1 1.14 5.94z" fill="#eb423f"/><path d="m408 128v16h-16v-16a8 8 0 0 1 16 0z" fill="#c7312e"/></svg>