<svg id="Flat" height="512" viewBox="0 0 512 512" width="512" xmlns="http://www.w3.org/2000/svg"><path d="m48 24h320v464h-320z" fill="#ffe76c"/><path d="m368 24h96v464h-96z" fill="#ffb632"/><path d="m80 176h256v240h-256z" fill="#e9eef2"/><path d="m80 336h256v80h-256z" fill="#ffb632"/><path d="m240 240v64h-64v-64a32 32 0 1 1 64 0z" fill="#ffb632"/><path d="m216 209.01v94.99a8 8 0 0 1 -16 0v-94.99a32.188 32.188 0 0 1 16 0z" fill="#ffe76c"/><path d="m176 264h64v16h-64z" fill="#ffe76c"/><path d="m240 240v8h-64v-8a32 32 0 0 1 1.01-8h61.98a32 32 0 0 1 1.01 8z" fill="#ffe76c"/><path d="m160 304h96a0 0 0 0 1 0 0v48a32 32 0 0 1 -32 32h-32a32 32 0 0 1 -32-32v-48a0 0 0 0 1 0 0z" fill="#a0ab65"/><path d="m144 352v-48h64z" fill="#cfdb8c"/><path d="m272 352v-48h-64z" fill="#cfdb8c"/><path d="m80 96h256v48h-256z" fill="#e9eef2"/><path d="m400 96h32v48h-32z" fill="#eba72e"/><path d="m400 176h32v240h-32z" fill="#eba72e"/><path d="m48 24h320v40h-320z" fill="#e9eef2"/><path d="m368 24h96v40h-96z" fill="#dadcde"/><g fill="#ffb632"><circle cx="128" cy="224" r="16"/><circle cx="288" cy="192" r="16"/><circle cx="320" cy="256" r="16"/><circle cx="96" cy="288" r="16"/></g></svg>