<svg id="Flat" height="512" viewBox="0 0 512 512" width="512" xmlns="http://www.w3.org/2000/svg"><path d="m24 424h464v32h-464z" fill="#8c5237"/><path d="m472 424h-192v-368h96l8.79 33.71a16 16 0 0 0 7.21 30.29c.23 0 .46 0 .69-.02l16.84 64.55a40 40 0 1 0 20.11 77.08z" fill="#ffb632"/><path d="m422.14 263.52a38.837 38.837 0 0 1 -6.14.48 40 40 0 0 1 -13.95-77.49z" fill="#e09f2c"/><circle cx="384" cy="368" fill="#e09f2c" r="24"/><path d="m392 424h-240l29.58-113.38a40 40 0 1 0 20.19-77.41l46.23-177.21h48l17.17 65.82a24 24 0 1 0 6.92 39.98c.01-.01.03-.02.05-.04a23.788 23.788 0 0 0 2.69-2.89z" fill="#ffe76c"/><g fill="#ffb632"><path d="m232 272a40 40 0 0 1 -40 40c-.93 0-1.85-.03-2.76-.1l19.85-76.06a39.973 39.973 0 0 1 22.91 36.16z"/><circle cx="272" cy="368" r="24"/><circle cx="328" cy="280" r="16"/><path d="m216 424h-128l40-192h48l27.73 133.12 3.37 16.17z"/></g><path d="m168 424h-128l10.02-48.09a24 24 0 0 0 9.38-45.03l20.6-98.88h48z" fill="#ffe76c"/><circle cx="128" cy="400" fill="#ffb632" r="24"/><path d="m207.1 381.29a16 16 0 1 1 -3.37-16.17z" fill="#e09f2c"/><circle cx="120" cy="280" fill="#ffb632" r="16"/></svg>