<svg id="Flat" height="512" viewBox="0 0 512 512" width="512" xmlns="http://www.w3.org/2000/svg"><path d="m440 168h-8v-16a32 32 0 0 0 -32-32 16 16 0 0 0 -16-16h-32a16 16 0 0 0 -16 16h-32a32.006 32.006 0 0 0 -32 32.007v15.993h-8a32 32 0 0 0 -32 32 32 32 0 0 0 32 32h176a32 32 0 0 0 32-32 32 32 0 0 0 -32-32z" fill="#b37a60"/><path d="m456 344v-16a16 16 0 0 0 16-16 16 16 0 0 0 -16-16h-208a16 16 0 0 0 -16 16 16 16 0 0 0 16 16v16a32 32 0 0 0 32 32h144a32 32 0 0 0 32-32z" fill="#b37a60"/><g fill="#e9eef2"><circle cx="320" cy="152" r="8"/><circle cx="352" cy="152" r="8"/><circle cx="384" cy="152" r="8"/></g><path d="m376 296h64a32 32 0 0 0 32-32 32 32 0 0 0 -32-32h-176a32 32 0 0 0 -32 32 32 32 0 0 0 32 32z" fill="#e0b999"/><path d="m24 376h464v32h-464z" fill="#8c5237"/><path d="m248 168h-8v-16a32 32 0 0 0 -32-32 16 16 0 0 0 -16-16h-32a16 16 0 0 0 -16 16h-32a32.006 32.006 0 0 0 -32 32.007v15.993h-8a32 32 0 0 0 -32 32 32 32 0 0 0 32 32h176a32 32 0 0 0 32-32 32 32 0 0 0 -32-32z" fill="#d49073"/><path d="m264 344v-16a16 16 0 0 0 16-16 16 16 0 0 0 -16-16h-208a16 16 0 0 0 -16 16 16 16 0 0 0 16 16v16a32 32 0 0 0 32 32h144a32 32 0 0 0 32-32z" fill="#d49073"/><circle cx="128" cy="152" fill="#e9eef2" r="8"/><circle cx="160" cy="152" fill="#e9eef2" r="8"/><circle cx="192" cy="152" fill="#e9eef2" r="8"/><path d="m40 264a32 32 0 0 0 32 32h16v64a16 16 0 0 0 16 16 16 16 0 0 0 16-16v-64h32v16a16 16 0 0 0 16 16 16 16 0 0 0 16-16v-16h64a32 32 0 0 0 32-32 32 32 0 0 0 -32-32h-176a32 32 0 0 0 -32 32z" fill="#f7cca9"/></svg>