<svg id="Flat" height="512" viewBox="0 0 512 512" width="512" xmlns="http://www.w3.org/2000/svg"><path d="m352 216h-192a8 8 0 0 1 -8-8v-64a8 8 0 0 1 8-8h208a24.027 24.027 0 0 1 24 24v16a40.045 40.045 0 0 1 -40 40z" fill="#8c5237"/><path d="m280 280h-208a23.9 23.9 0 0 0 -16 6.13 23.574 23.574 0 0 0 -5.67-3.78 8.024 8.024 0 0 0 -2.33 5.65v64a8 8 0 0 0 8 8h208a40.04 40.04 0 0 0 40-40v-16a24.032 24.032 0 0 0 -24-24z" fill="#8c5237"/><path d="m312 288h-192a8 8 0 0 1 -8-8v-64a8 8 0 0 1 8-8h208a24.027 24.027 0 0 1 24 24v16a40.045 40.045 0 0 1 -40 40z" fill="#966651"/><path d="m408 288h-192a8 8 0 0 1 -8-8v-64a8 8 0 0 1 8-8h208a24.027 24.027 0 0 1 24 24v16a40.045 40.045 0 0 1 -40 40z" fill="#966651"/><path d="m152 216a40.045 40.045 0 0 1 -40-40v-16a23.988 23.988 0 0 1 40-17.874 23.988 23.988 0 0 1 40 17.874v16a40.045 40.045 0 0 1 -40 40z" fill="#8c5237"/><path d="m104 288a40.045 40.045 0 0 1 -40-40v-16a23.988 23.988 0 0 1 40-17.874 23.988 23.988 0 0 1 40 17.874v16a40.045 40.045 0 0 1 -40 40z" fill="#966651"/><path d="m200 288a40.045 40.045 0 0 1 -40-40v-16a23.988 23.988 0 0 1 40-17.874 23.988 23.988 0 0 1 40 17.874v16a40.045 40.045 0 0 1 -40 40z" fill="#966651"/><path d="m56 360a40.045 40.045 0 0 1 -40-40v-16a23.988 23.988 0 0 1 40-17.874 23.988 23.988 0 0 1 40 17.874v16a40.045 40.045 0 0 1 -40 40z" fill="#8c5237"/><path d="m40 328a8 8 0 0 1 0-16 8.009 8.009 0 0 0 8-8 8 8 0 0 1 16 0 24.027 24.027 0 0 1 -24 24z" fill="#ad6643"/><path d="m72 328a24.027 24.027 0 0 1 -24-24 8 8 0 0 1 16 0 8.009 8.009 0 0 0 8 8 8 8 0 0 1 0 16z" fill="#ad6643"/><path d="m72 280a23.9 23.9 0 0 0 -16 6.13 24.044 24.044 0 0 0 -16-6.13 24.032 24.032 0 0 0 -24 24v16a40 40 0 0 0 80 0v-16a24.032 24.032 0 0 0 -24-24zm8 40a24.032 24.032 0 0 1 -24 24 23.6 23.6 0 0 1 -8-1.38 24.022 24.022 0 0 1 -16-22.62v-16a8 8 0 0 1 16 0 8 8 0 0 0 16 0 8 8 0 0 1 16 0z" fill="#ad6643"/><path d="m360 360h-192a8 8 0 0 1 -8-8v-64a8 8 0 0 1 8-8h208a24.027 24.027 0 0 1 24 24v16a40.045 40.045 0 0 1 -40 40z" fill="#966651"/><path d="m152 360a40.045 40.045 0 0 1 -40-40v-16a23.988 23.988 0 0 1 40-17.874 23.988 23.988 0 0 1 40 17.874v16a40.045 40.045 0 0 1 -40 40z" fill="#966651"/><path d="m136 328a8 8 0 0 1 0-16 8.009 8.009 0 0 0 8-8 8 8 0 0 1 16 0 24.027 24.027 0 0 1 -24 24z" fill="#b37a60"/><path d="m168 328a24.027 24.027 0 0 1 -24-24 8 8 0 0 1 16 0 8.009 8.009 0 0 0 8 8 8 8 0 0 1 0 16z" fill="#b37a60"/><path d="m152 360a40.045 40.045 0 0 1 -40-40v-16a23.988 23.988 0 0 1 40-17.874 23.988 23.988 0 0 1 40 17.874v16a40.045 40.045 0 0 1 -40 40zm-16-64a8.009 8.009 0 0 0 -8 8v16a24 24 0 0 0 48 0v-16a8 8 0 0 0 -16 0 8 8 0 0 1 -16 0 8.009 8.009 0 0 0 -8-8z" fill="#b37a60"/><path d="m456 360h-192a8 8 0 0 1 -8-8v-64a8 8 0 0 1 8-8h208a24.027 24.027 0 0 1 24 24v16a40.045 40.045 0 0 1 -40 40z" fill="#8c5237"/><path d="m248 360a40.045 40.045 0 0 1 -40-40v-16a23.988 23.988 0 0 1 40-17.874 23.988 23.988 0 0 1 40 17.874v16a40.045 40.045 0 0 1 -40 40z" fill="#8c5237"/><g fill="#ad6643"><path d="m232 328a8 8 0 0 1 0-16 8.009 8.009 0 0 0 8-8 8 8 0 0 1 16 0 24.027 24.027 0 0 1 -24 24z"/><path d="m264 328a24.027 24.027 0 0 1 -24-24 8 8 0 0 1 16 0 8.009 8.009 0 0 0 8 8 8 8 0 0 1 0 16z"/><path d="m248 360a40.045 40.045 0 0 1 -40-40v-16a23.988 23.988 0 0 1 40-17.874 23.988 23.988 0 0 1 40 17.874v16a40.045 40.045 0 0 1 -40 40zm-16-64a8.009 8.009 0 0 0 -8 8v16a24 24 0 0 0 48 0v-16a8 8 0 0 0 -16 0 8 8 0 0 1 -16 0 8.009 8.009 0 0 0 -8-8z"/><path d="m136 184a8 8 0 0 1 0-16 8.009 8.009 0 0 0 8-8 8 8 0 0 1 16 0 24.027 24.027 0 0 1 -24 24z"/><path d="m168 184a24.027 24.027 0 0 1 -24-24 8 8 0 0 1 16 0 8.009 8.009 0 0 0 8 8 8 8 0 0 1 0 16z"/><path d="m152 216a40.045 40.045 0 0 1 -40-40v-16a23.988 23.988 0 0 1 40-17.874 23.988 23.988 0 0 1 40 17.874v16a40.045 40.045 0 0 1 -40 40zm-16-64a8.009 8.009 0 0 0 -8 8v16a24 24 0 0 0 48 0v-16a8 8 0 0 0 -16 0 8 8 0 0 1 -16 0 8.009 8.009 0 0 0 -8-8z"/></g><path d="m120 208a23.9 23.9 0 0 0 -16 6.126 23.988 23.988 0 0 0 -40 17.874v16a40 40 0 0 0 80 0v-16a24.028 24.028 0 0 0 -24-24zm8 40a24 24 0 0 1 -48 0v-16a8 8 0 1 1 8 8 8 8 0 0 0 0 16 23.9 23.9 0 0 0 16-6.131 23.9 23.9 0 0 0 16 6.131 8 8 0 0 0 0-16 8 8 0 1 1 8-8z" fill="#b37a60"/><path d="m216 208a23.9 23.9 0 0 0 -16 6.126 23.988 23.988 0 0 0 -40 17.874v16a40 40 0 0 0 80 0v-16a24.028 24.028 0 0 0 -24-24zm8 40a24 24 0 0 1 -48 0v-16a8 8 0 1 1 8 8 8 8 0 0 0 0 16 23.9 23.9 0 0 0 16-6.131 23.9 23.9 0 0 0 16 6.131 8 8 0 0 0 0-16 8 8 0 1 1 8-8z" fill="#b37a60"/></svg>