<svg id="Flat" height="512" viewBox="0 0 512 512" width="512" xmlns="http://www.w3.org/2000/svg"><circle cx="384" cy="360" fill="#966651" r="104"/><circle cx="440" cy="352" fill="#5e3d30" r="16"/><path d="m368 336-8-48h24l8 48z" fill="#f7cca9"/><g fill="#5e3d30"><circle cx="392" cy="416" r="8"/><circle cx="424" cy="416" r="8"/><circle cx="392" cy="384" r="8"/></g><circle cx="256" cy="360" fill="#b37a60" r="104"/><circle cx="264" cy="416" fill="#5e3d30" r="16"/><circle cx="224" cy="312" fill="#5e3d30" r="24"/><path d="m280 344 48-8v24l-48 8z" fill="#f7cca9"/><circle cx="232" cy="368" fill="#5e3d30" r="8"/><circle cx="128" cy="360" fill="#966651" r="104"/><circle cx="72" cy="368" fill="#5e3d30" r="16"/><circle cx="176" cy="328" fill="#5e3d30" r="24"/><path d="m144 384 8 48h-24l-8-48z" fill="#f7cca9"/><circle cx="120" cy="304" fill="#5e3d30" r="8"/><circle cx="88" cy="304" fill="#5e3d30" r="8"/><circle cx="120" cy="336" fill="#5e3d30" r="8"/><path d="m280 200a104 104 0 1 1 -142.42-96.68 88 88 0 0 0 141.77 85.08 103.4 103.4 0 0 1 .65 11.6z" fill="#b37a60"/><path d="m311.35 140.4a88.03 88.03 0 0 1 -141.77-85.08 104.084 104.084 0 0 1 141.77 85.08z" fill="#b37a60"/><circle cx="200" cy="96" fill="#5e3d30" r="16"/><circle cx="208" cy="248" fill="#5e3d30" r="24"/><path d="m152 216-48 8v-24l48-8z" fill="#f7cca9"/><circle cx="264" cy="144" fill="#5e3d30" r="8"/><circle cx="264" cy="112" fill="#5e3d30" r="8"/><circle cx="232" cy="144" fill="#5e3d30" r="8"/><path d="m360 224-48 8v-24l48-8z" fill="#f7cca9"/><circle cx="360" cy="152" fill="#5e3d30" r="16"/><circle cx="416" cy="200" fill="#5e3d30" r="24"/></svg>