<svg id="Flat" height="512" viewBox="0 0 512 512" width="512" xmlns="http://www.w3.org/2000/svg"><path d="m136 216h240v272h-240z" fill="#dadcde"/><path d="m136 392h240v96h-240z" fill="#dadcde"/><g fill="#c3c6c7"><path d="m136 392h240v32h-240z"/><path d="m176.003 215.999h16v176h-16z"/><path d="m224.003 215.999h16v176h-16z"/><path d="m272.003 215.999h16v176h-16z"/><path d="m320.003 215.999h16v176h-16z"/></g><path d="m344 88a64 64 0 0 0 -64-64h-48a64 64 0 0 0 -64 64h-32a64 64 0 0 0 -64 64 64 64 0 0 0 64 64h64a32 32 0 0 0 32 32h40a32 32 0 0 0 32-32h72a64 64 0 0 0 64-64 64 64 0 0 0 -64-64z" fill="#e9eef2"/><path d="m200 128a8 8 0 0 1 -8-8 24.027 24.027 0 0 0 -24-24 8 8 0 0 1 0-16 40.045 40.045 0 0 1 40 40 8 8 0 0 1 -8 8z" fill="#dadcde"/><path d="m312 128a8 8 0 0 1 -8-8 40.045 40.045 0 0 1 40-40 8 8 0 0 1 0 16 24.027 24.027 0 0 0 -24 24 8 8 0 0 1 -8 8z" fill="#dadcde"/><path d="m232 424h144v64h-144z" fill="#e9eef2"/><circle cx="344" cy="456" fill="#dadcde" r="8"/><circle cx="312" cy="456" fill="#dadcde" r="8"/><circle cx="280" cy="456" fill="#dadcde" r="8"/></svg>