<svg id="Flat" height="512" viewBox="0 0 512 512" width="512" xmlns="http://www.w3.org/2000/svg"><path d="m368 72-64 224h-32l64-224z" fill="#8c5237"/><path d="m432 72-64 224h-32l64-224z" fill="#8c5237"/><path d="m272 67.08v4.92a16 16 0 0 1 -16 16h-32a16 16 0 0 1 -16-16v-4.92a16.126 16.126 0 0 1 1.14-5.94l10.84-27.08a15.989 15.989 0 0 1 14.85-10.06h10.34a15.989 15.989 0 0 1 14.85 10.06l10.84 27.08a16.126 16.126 0 0 1 1.14 5.94z" fill="#eb423f"/><path d="m248 72v16h-16v-16a8 8 0 0 1 16 0z" fill="#c7312e"/><path d="m368 488h-256l-32-192h320z" fill="#8c5237"/><path d="m128 232h224a32 32 0 0 1 32 32v32a0 0 0 0 1 0 0h-288a0 0 0 0 1 0 0v-32a32 32 0 0 1 32-32z" fill="#f7cca9"/><path d="m264 88h-48a16 16 0 0 0 -16 16v32h80v-32a16 16 0 0 0 -16-16z" fill="#734b39"/><path d="m286.015 122.248-96 12a16 16 0 0 0 -14.015 15.876v17.876h128v-29.876a16 16 0 0 0 -17.985-15.876z" fill="#5e3d30"/><path d="m302.408 153.759-128 12.8a16 16 0 0 0 -14.408 15.921v17.52h160v-30.32a16 16 0 0 0 -17.592-15.921z" fill="#734b39"/><path d="m152 80h16a32 32 0 0 1 32 32v16a0 0 0 0 1 0 0h-16a32 32 0 0 1 -32-32v-16a0 0 0 0 1 0 0z" fill="#cfdb8c"/><path d="m158.671 198.777a16 16 0 0 0 -14.671 15.945v65.278a16 16 0 0 0 16 16 16 16 0 0 0 16-16v-48h32v16a16 16 0 0 0 16 16 16 16 0 0 0 16-16v-16h96v-30.611a16 16 0 0 0 -17.329-15.945z" fill="#5e3d30"/><circle cx="128" cy="216" fill="#eb423f" r="16"/><circle cx="288" cy="280" fill="#eb423f" r="16"/><circle cx="352" cy="216" fill="#eb423f" r="16"/><circle cx="288" cy="136" fill="#eb423f" r="16"/><g fill="#ad6643"><path d="m312 296q0 .33-.03.66l-15.94 191.34h-16.03q0-.33.03-.66l15.95-191.34z"/><path d="m200 488h-16.02l-15.95-191.34q-.03-.33-.03-.66h16.03l15.94 191.34q.03.33.03.66z"/><path d="m360 296a8.346 8.346 0 0 1 -.06.99l-23.88 191.01h-16.06a8.346 8.346 0 0 1 .06-.99l23.88-191.01z"/><path d="m232 296h16v192h-16z"/><path d="m160 488h-16.06l-23.88-191.01a8.346 8.346 0 0 1 -.06-.99h16.06l23.88 191.01a8.346 8.346 0 0 1 .06.99z"/></g></svg>