<svg id="Flat" height="512" viewBox="0 0 512 512" width="512" xmlns="http://www.w3.org/2000/svg"><circle cx="256" cy="232" fill="#d49073" r="208"/><path d="m464 232c0-114.879-93.119-208-208-208a208.12 208.12 0 0 0 -192.06 288h32.06a16 16 0 0 1 16 16 16 16 0 0 0 16 16 16 16 0 0 0 16-16 16 16 0 0 1 16-16 16 16 0 0 1 16 16v144a16 16 0 0 0 16 16 16 16 0 0 0 16-16v-144a16 16 0 0 1 16-16 16 16 0 0 1 16 16v96a16 16 0 0 0 16 16 16 16 0 0 0 16-16v-96a16 16 0 0 1 16-16 16 16 0 0 1 16 16v144a16 16 0 0 0 16 16 16 16 0 0 0 16-16v-144a16 16 0 0 1 16-16 16 16 0 0 1 16 16 16 16 0 0 0 16 16 16 16 0 0 0 16-16 16 16 0 0 1 16-16h32.06a207.372 207.372 0 0 0 15.94-80z" fill="#734b39"/><circle cx="256" cy="232" fill="#e9eef2" r="48"/><g fill="#966651"><path d="m360 272h-16a8 8 0 0 1 0-16h16a8 8 0 0 1 0 16z"/><circle cx="256" cy="88" r="16"/><circle cx="136" cy="208" r="16"/><circle cx="400" cy="200" r="16"/><circle cx="104" cy="264" r="8"/><circle cx="184" cy="96" r="8"/><circle cx="352" cy="160" r="8"/><path d="m328 120h-16a8 8 0 0 1 0-16h16a8 8 0 0 1 0 16z"/><path d="m168 152h-16a8 8 0 0 1 0-16h16a8 8 0 0 1 0 16z"/></g></svg>