<svg id="Flat" height="512" viewBox="0 0 512 512" width="512" xmlns="http://www.w3.org/2000/svg"><rect fill="#b37a60" height="192" rx="32" width="464" x="24" y="104"/><rect fill="#966651" height="128" rx="16" width="400" x="56" y="136"/><path d="m456 152v16h-400v-16a16 16 0 0 1 16-16h368a16 16 0 0 1 16 16z" fill="#8c5237"/><path d="m240 296a109.241 109.241 0 0 1 -4.67 32h-102.66a109.241 109.241 0 0 1 -4.67-32c0-44.18 25.07-80 56-80s56 35.82 56 80z" fill="#e0b999"/><path d="m384 296a109.241 109.241 0 0 1 -4.67 32h-102.66a109.241 109.241 0 0 1 -4.67-32c0-44.18 25.07-80 56-80s56 35.82 56 80z" fill="#e0b999"/><g fill="#f7cca9"><ellipse cx="112" cy="296" rx="56" ry="80"/><ellipse cx="256" cy="296" rx="56" ry="80"/><ellipse cx="400" cy="296" rx="56" ry="80"/></g><path d="m24 296h464v32h-464z" fill="#b37a60"/><path d="m456 408h-112l-16-48-16 48h-112l-16-48-16 48h-112l-16-80h432z" fill="#966651"/></svg>