<svg id="Flat" height="512" viewBox="0 0 512 512" width="512" xmlns="http://www.w3.org/2000/svg"><path d="m456 488h-96v-272h96v224l13.313 19.969a16 16 0 0 1 2.687 8.875v3.156a16 16 0 0 1 -16 16z" fill="#966651"/><path d="m360 488h-304a16 16 0 0 1 -16-16v-3.156a16 16 0 0 1 2.687-8.875l13.313-19.969v-224h304v224l13.313 19.973a16 16 0 0 1 2.687 8.872v3.155a16 16 0 0 1 -16 16z" fill="#b37a60"/><rect fill="#f7cca9" height="80" rx="16" width="432" x="40" y="136"/><path d="m472 152v48a16 16 0 0 1 -16 16h-96v-80h96a16 16 0 0 1 16 16z" fill="#e0b999"/><path d="m383.862 24h-255.724a32 32 0 0 0 -30.769 23.209l-25.369 88.791h368l-25.369-88.791a32 32 0 0 0 -30.769-23.209z" fill="#e9eef2"/><path d="m216 448h-152a8 8 0 0 1 0-16h152a8 8 0 0 1 0 16z" fill="#966651"/><path d="m128 248h160v160h-160z" fill="#f7cca9"/><path d="m392 248h32v160h-32z" fill="#e0b999"/><path d="m200 296h16v112h-16z" fill="#966651"/><path d="m176 312h16a16 16 0 0 1 16 16v16a0 0 0 0 1 0 0h-16a16 16 0 0 1 -16-16v-16a0 0 0 0 1 0 0z" fill="#e09f2c"/><path d="m176 280h16a16 16 0 0 1 16 16v16a0 0 0 0 1 0 0h-16a16 16 0 0 1 -16-16v-16a0 0 0 0 1 0 0z" fill="#ffb632"/><path d="m176 344h16a16 16 0 0 1 16 16v16a0 0 0 0 1 0 0h-16a16 16 0 0 1 -16-16v-16a0 0 0 0 1 0 0z" fill="#ffb632"/><path d="m224 312h16a0 0 0 0 1 0 0v16a16 16 0 0 1 -16 16h-16a0 0 0 0 1 0 0v-16a16 16 0 0 1 16-16z" fill="#ffb632" transform="matrix(-1 0 0 -1 448 656)"/><path d="m224 280h16a0 0 0 0 1 0 0v16a16 16 0 0 1 -16 16h-16a0 0 0 0 1 0 0v-16a16 16 0 0 1 16-16z" fill="#e09f2c" transform="matrix(-1 0 0 -1 448 592)"/><path d="m224 344h16a0 0 0 0 1 0 0v16a16 16 0 0 1 -16 16h-16a0 0 0 0 1 0 0v-16a16 16 0 0 1 16-16z" fill="#e09f2c" transform="matrix(-1 0 0 -1 448 720)"/><g fill="#dadcde"><circle cx="360" cy="104" r="8"/><circle cx="328" cy="104" r="8"/><circle cx="360" cy="72" r="8"/><circle cx="152" cy="56" r="8"/><circle cx="184" cy="56" r="8"/><circle cx="152" cy="88" r="8"/></g></svg>