<svg id="Flat" height="512" viewBox="0 0 512 512" width="512" xmlns="http://www.w3.org/2000/svg"><g fill="#966651"><path d="m56 328h-32a8 8 0 0 1 0-16h32a8 8 0 0 1 0 16z"/><path d="m56 216h-32a8 8 0 0 1 0-16h32a8 8 0 0 1 0 16z"/><path d="m368 64a8 8 0 0 1 -8-8v-32a8 8 0 0 1 16 0v32a8 8 0 0 1 -8 8z"/><path d="m480 64a8 8 0 0 1 -8-8v-32a8 8 0 0 1 16 0v32a8 8 0 0 1 -8 8z"/><path d="m360 496a8 8 0 0 1 -8-8v-160a56.063 56.063 0 0 0 -56-56h-256a8 8 0 0 1 0-16h256a72.081 72.081 0 0 1 72 72v160a8 8 0 0 1 -8 8z"/><path d="m424 496a8 8 0 0 1 -8-8v-448a8 8 0 0 1 16 0v448a8 8 0 0 1 -8 8z"/></g><path d="m128 432h32a0 0 0 0 1 0 0v16a32 32 0 0 1 -32 32h-32a0 0 0 0 1 0 0v-16a32 32 0 0 1 32-32z" fill="#ffb632" transform="matrix(0 -1 1 0 -328 584)"/><path d="m280 440h32a0 0 0 0 1 0 0v16a32 32 0 0 1 -32 32h-32a0 0 0 0 1 0 0v-16a32 32 0 0 1 32-32z" fill="#ffb632" transform="matrix(-1 0 0 -1 560 928)"/><path d="m48 272h32a32 32 0 0 1 32 32v16a0 0 0 0 1 0 0h-32a32 32 0 0 1 -32-32v-16a0 0 0 0 1 0 0z" fill="#e09f2c" transform="matrix(0 -1 1 0 -216 376)"/><path d="m144 272h32a32 32 0 0 1 32 32v16a0 0 0 0 1 0 0h-32a32 32 0 0 1 -32-32v-16a0 0 0 0 1 0 0z" fill="#e09f2c" transform="matrix(0 -1 1 0 -120 472)"/><path d="m240 272h32a32 32 0 0 1 32 32v16a0 0 0 0 1 0 0h-32a32 32 0 0 1 -32-32v-16a0 0 0 0 1 0 0z" fill="#e09f2c" transform="matrix(0 -1 1 0 -24 568)"/><path d="m80 208h32a0 0 0 0 1 0 0v16a32 32 0 0 1 -32 32h-32a0 0 0 0 1 0 0v-16a32 32 0 0 1 32-32z" fill="#ffb632" transform="matrix(0 1 -1 0 312 152)"/><path d="m128 208h32a0 0 0 0 1 0 0v16a32 32 0 0 1 -32 32h-32a0 0 0 0 1 0 0v-16a32 32 0 0 1 32-32z" fill="#e09f2c" transform="matrix(0 1 -1 0 360 104)"/><path d="m176 208h32a0 0 0 0 1 0 0v16a32 32 0 0 1 -32 32h-32a0 0 0 0 1 0 0v-16a32 32 0 0 1 32-32z" fill="#ffb632" transform="matrix(0 1 -1 0 408 56)"/><path d="m224 208h32a0 0 0 0 1 0 0v16a32 32 0 0 1 -32 32h-32a0 0 0 0 1 0 0v-16a32 32 0 0 1 32-32z" fill="#e09f2c" transform="matrix(0 1 -1 0 456 8)"/><path d="m272 208h32a0 0 0 0 1 0 0v16a32 32 0 0 1 -32 32h-32a0 0 0 0 1 0 0v-16a32 32 0 0 1 32-32z" fill="#ffb632" transform="matrix(0 1 -1 0 504 -40)"/><path d="m360 56h32a32 32 0 0 1 32 32v16a0 0 0 0 1 0 0h-32a32 32 0 0 1 -32-32v-16a0 0 0 0 1 0 0z" fill="#e09f2c"/><path d="m360 104h32a32 32 0 0 1 32 32v16a0 0 0 0 1 0 0h-32a32 32 0 0 1 -32-32v-16a0 0 0 0 1 0 0z" fill="#ffb632"/><path d="m360 152h32a32 32 0 0 1 32 32v16a0 0 0 0 1 0 0h-32a32 32 0 0 1 -32-32v-16a0 0 0 0 1 0 0z" fill="#e09f2c"/><path d="m360 200h32a32 32 0 0 1 32 32v16a0 0 0 0 1 0 0h-32a32 32 0 0 1 -32-32v-16a0 0 0 0 1 0 0z" fill="#ffb632"/><path d="m360 248h32a32 32 0 0 1 32 32v16a0 0 0 0 1 0 0h-32a32 32 0 0 1 -32-32v-16a0 0 0 0 1 0 0z" fill="#e09f2c"/><path d="m456 56h32a0 0 0 0 1 0 0v16a32 32 0 0 1 -32 32h-32a0 0 0 0 1 0 0v-16a32 32 0 0 1 32-32z" fill="#ffb632" transform="matrix(-1 0 0 -1 912 160)"/><path d="m456 104h32a0 0 0 0 1 0 0v16a32 32 0 0 1 -32 32h-32a0 0 0 0 1 0 0v-16a32 32 0 0 1 32-32z" fill="#e09f2c" transform="matrix(-1 0 0 -1 912 256)"/><path d="m456 152h32a0 0 0 0 1 0 0v16a32 32 0 0 1 -32 32h-32a0 0 0 0 1 0 0v-16a32 32 0 0 1 32-32z" fill="#ffb632" transform="matrix(-1 0 0 -1 912 352)"/><path d="m456 200h32a0 0 0 0 1 0 0v16a32 32 0 0 1 -32 32h-32a0 0 0 0 1 0 0v-16a32 32 0 0 1 32-32z" fill="#e09f2c" transform="matrix(-1 0 0 -1 912 448)"/><path d="m456 248h32a0 0 0 0 1 0 0v16a32 32 0 0 1 -32 32h-32a0 0 0 0 1 0 0v-16a32 32 0 0 1 32-32z" fill="#ffb632" transform="matrix(-1 0 0 -1 912 544)"/><circle cx="56" cy="472" fill="#e09f2c" r="16"/><circle cx="200" cy="472" fill="#e09f2c" r="16"/><circle cx="232" cy="424" fill="#e09f2c" r="8"/><circle cx="24" cy="440" fill="#e09f2c" r="8"/><circle cx="328" cy="488" fill="#e09f2c" r="8"/></svg>