<svg id="Flat" height="512" viewBox="0 0 512 512" width="512" xmlns="http://www.w3.org/2000/svg"><path d="m216 40a16 16 0 0 0 -16-16h-32a16 16 0 0 0 -16 16h-16a16 16 0 0 0 -16 16h-16a16 16 0 0 0 -16 16v176h32v-48a16 16 0 0 1 16-16 16 16 0 0 1 16 16 16 16 0 0 0 16 16 16 16 0 0 0 16-16 16 16 0 0 1 16-16 16 16 0 0 1 16 16 16 16 0 0 0 16 16 16 16 0 0 0 16-16v-144a16 16 0 0 0 -16-16z" fill="#ffe76c"/><path d="m136 136a16 16 0 0 1 -16-16v-32a16 16 0 0 1 16-16 16 16 0 0 1 16 16v32a16 16 0 0 1 -16 16z" fill="#ffb632"/><path d="m232 136a16 16 0 0 1 -16-16v-32a16 16 0 0 1 16-16 16 16 0 0 1 16 16v32a16 16 0 0 1 -16 16z" fill="#eba72e"/><path d="m168 152a16 16 0 0 1 -16-16v-64a16 16 0 0 1 16-16 16 16 0 0 1 16 16v64a16 16 0 0 1 -16 16z" fill="#eba72e"/><path d="m200 152a16 16 0 0 1 -16-16v-64a16 16 0 0 1 16-16 16 16 0 0 1 16 16v64a16 16 0 0 1 -16 16z" fill="#ffb632"/><path d="m472 120h-224v-32h224a16 16 0 0 1 16 16 16 16 0 0 1 -16 16z" fill="#b37a60"/><path d="m280 280h-224a16 16 0 0 1 -16-16 16 16 0 0 1 16-16h224a16 16 0 0 1 16 16 16 16 0 0 1 -16 16z" fill="#ffb632"/><path d="m280 312v-32h-224v32a32 32 0 0 0 -32 32v80a32 32 0 0 0 32 32h224a32 32 0 0 0 32-32v-80a32 32 0 0 0 -32-32z" fill="#eba72e"/><path d="m56 456h224v32h-224z" fill="#ffb632"/><path d="m248 344v-64h-160v64h-16a16 16 0 0 0 -16 16v48a16 16 0 0 0 16 16h192a16 16 0 0 0 16-16v-48a16 16 0 0 0 -16-16z" fill="#ffe76c"/><path d="m120 280h128v32h-128z" fill="#e09f2c"/><g fill="#ffb632"><circle cx="200" cy="392" r="8"/><circle cx="232" cy="392" r="8"/><circle cx="120" cy="344" r="8"/><path d="m360 488h-32l-16-24 16-24h32l16 24z"/></g><path d="m408 464h-32l-16-24 16-24h32l16 24z" fill="#eba72e"/><path d="m456 488h-32l-16-24 16-24h32l16 24z" fill="#ffe76c"/><path d="m360 440h-32l-16-24 16-24h32l16 24z" fill="#ffe76c"/><path d="m408 416h-32l-16-24 16-24h32l16 24z" fill="#ffb632"/></svg>