<svg id="Flat" height="512" viewBox="0 0 512 512" width="512" xmlns="http://www.w3.org/2000/svg"><path d="m240 320h-192a16 16 0 0 1 -16-16 16 16 0 0 1 16-16h192a16 16 0 0 1 16 16 16 16 0 0 1 -16 16z" fill="#eb423f"/><path d="m80 240h128a32 32 0 0 1 32 32v16a0 0 0 0 1 0 0h-192a0 0 0 0 1 0 0v-16a32 32 0 0 1 32-32z" fill="#c7312e"/><path d="m48 352h192a16 16 0 0 1 16 16 16 16 0 0 1 -16 16h-192a16 16 0 0 1 -16-16 16 16 0 0 1 16-16z" fill="#eb423f"/><path d="m80 384h128a32 32 0 0 1 32 32v16a0 0 0 0 1 0 0h-192a0 0 0 0 1 0 0v-16a32 32 0 0 1 32-32z" fill="#c7312e" transform="matrix(-1 0 0 -1 288 816)"/><path d="m464 320h-192a16 16 0 0 1 -16-16 16 16 0 0 1 16-16h192a16 16 0 0 1 16 16 16 16 0 0 1 -16 16z" fill="#cfdb8c"/><path d="m304 240h128a32 32 0 0 1 32 32v16a0 0 0 0 1 0 0h-192a0 0 0 0 1 0 0v-16a32 32 0 0 1 32-32z" fill="#a0ab65"/><path d="m272 352h192a16 16 0 0 1 16 16 16 16 0 0 1 -16 16h-192a16 16 0 0 1 -16-16 16 16 0 0 1 16-16z" fill="#cfdb8c"/><path d="m304 384h128a32 32 0 0 1 32 32v16a0 0 0 0 1 0 0h-192a0 0 0 0 1 0 0v-16a32 32 0 0 1 32-32z" fill="#a0ab65" transform="matrix(-1 0 0 -1 736 816)"/><path d="m352 128h-192a16 16 0 0 1 -16-16 16 16 0 0 1 16-16h192a16 16 0 0 1 16 16 16 16 0 0 1 -16 16z" fill="#ffe76c"/><path d="m352 144a15.972 15.972 0 0 1 -15.06 15.97c-.31.02-.62.03-.94.03h-160a16 16 0 0 1 -.94-31.97c.31-.02.62-.03.94-.03h160a16 16 0 0 1 16 16z" fill="#f7cca9"/><g fill="#e0b999"><path d="m208.95 160h-17.9l-15.99-31.97c.31-.02.62-.03.94-.03h16.95z"/><path d="m240.95 160h-17.9l-16-32h17.9z"/><path d="m272.95 160h-17.9l-16-32h17.9z"/><path d="m304.95 160h-17.9l-16-32h17.9z"/><path d="m336.94 159.97c-.31.02-.62.03-.94.03h-16.95l-16-32h17.9z"/></g><path d="m192 48h128a32 32 0 0 1 32 32v16a0 0 0 0 1 0 0h-192a0 0 0 0 1 0 0v-16a32 32 0 0 1 32-32z" fill="#ffb632"/><path d="m160 160h192a16 16 0 0 1 16 16 16 16 0 0 1 -16 16h-192a16 16 0 0 1 -16-16 16 16 0 0 1 16-16z" fill="#ffe76c"/><path d="m192 192h128a32 32 0 0 1 32 32v16a0 0 0 0 1 0 0h-192a0 0 0 0 1 0 0v-16a32 32 0 0 1 32-32z" fill="#ffb632" transform="matrix(-1 0 0 -1 512 432)"/><path d="m24 432h464v32h-464z" fill="#8c5237"/><path d="m240 336a15.972 15.972 0 0 1 -15.06 15.97c-.31.02-.62.03-.94.03h-160a16 16 0 0 1 -.94-31.97c.31-.02.62-.03.94-.03h160a16 16 0 0 1 16 16z" fill="#f7cca9"/><path d="m96.95 352h-17.9l-15.99-31.97c.31-.02.62-.03.94-.03h16.95z" fill="#e0b999"/><path d="m128.95 352h-17.9l-16-32h17.9z" fill="#e0b999"/><path d="m160.95 352h-17.9l-16-32h17.9z" fill="#e0b999"/><path d="m192.95 352h-17.9l-16-32h17.9z" fill="#e0b999"/><path d="m224.94 351.97c-.31.02-.62.03-.94.03h-16.95l-16-32h17.9z" fill="#e0b999"/><path d="m464 336a15.972 15.972 0 0 1 -15.06 15.97c-.31.02-.62.03-.94.03h-160a16 16 0 0 1 -.94-31.97c.31-.02.62-.03.94-.03h160a16 16 0 0 1 16 16z" fill="#f7cca9"/><path d="m320.95 352h-17.9l-15.99-31.97c.31-.02.62-.03.94-.03h16.95z" fill="#e0b999"/><path d="m352.95 352h-17.9l-16-32h17.9z" fill="#e0b999"/><path d="m384.95 352h-17.9l-16-32h17.9z" fill="#e0b999"/><path d="m416.95 352h-17.9l-16-32h17.9z" fill="#e0b999"/><path d="m448.94 351.97c-.31.02-.62.03-.94.03h-16.95l-16-32h17.9z" fill="#e0b999"/></svg>