<svg id="Flat" height="512" viewBox="0 0 512 512" width="512" xmlns="http://www.w3.org/2000/svg"><path d="m104 152h208v336h-208z" fill="#3397e8"/><path d="m104 152v96a32 32 0 0 0 32 32 32 32 0 0 0 32-32v-16a16 16 0 0 1 16-16 16 16 0 0 1 16 16 32 32 0 0 0 32 32 32 32 0 0 0 32-32 16 16 0 0 1 16-16h32v-64z" fill="#e9eef2"/><path d="m312 152h96v336h-96z" fill="#2978b8"/><path d="m360 72-48 80h96z" fill="#c3c6c7"/><path d="m152 24h208v48h-208z" fill="#e9eef2"/><path d="m312 152h-208l48-80h208z" fill="#dadcde"/><path d="m312 152h96v64h-96z" fill="#dadcde"/><rect fill="#7e8589" height="48" rx="16" width="112" x="152" y="392"/><path d="m168 344h80v48h-80z" fill="#e9eef2"/><path d="m152 376h16v-32h-16a16 16 0 0 0 -16 16 16 16 0 0 0 16 16z" fill="#c3c6c7"/><path d="m176 312h16a0 0 0 0 1 0 0v32a0 0 0 0 1 0 0h-32a0 0 0 0 1 0 0v-16a16 16 0 0 1 16-16z" fill="#7e8589" transform="matrix(0 1 -1 0 504 152)"/><path d="m224 312h32a0 0 0 0 1 0 0v32a0 0 0 0 1 0 0h-16a16 16 0 0 1 -16-16v-16a0 0 0 0 1 0 0z" fill="#7e8589" transform="matrix(0 1 -1 0 568 88)"/><path d="m264 344h-16v32h16a16 16 0 0 0 16-16 16 16 0 0 0 -16-16z" fill="#c3c6c7"/><circle cx="184" cy="424" fill="#6a7073" r="8"/><circle cx="232" cy="424" fill="#6a7073" r="8"/><path d="m344 248h32v192h-32z" fill="#dadcde"/></svg>