<svg id="Flat" height="512" viewBox="0 0 512 512" width="512" xmlns="http://www.w3.org/2000/svg"><path d="m464 120v64a16 16 0 0 1 -16 16h-320v-80a64 64 0 0 1 64-64h208a64 64 0 0 1 64 64z" fill="#eb423f"/><path d="m128 200h176a0 0 0 0 1 0 0v32a16 16 0 0 1 -16 16h-144a16 16 0 0 1 -16-16v-32a0 0 0 0 1 0 0z" fill="#c7312e"/><path d="m72 312h288a0 0 0 0 1 0 0v80a96 96 0 0 1 -96 96h-96a96 96 0 0 1 -96-96v-80a0 0 0 0 1 0 0z" fill="#dadcde"/><path d="m104 312h224a0 0 0 0 1 0 0v80a64 64 0 0 1 -64 64h-96a64 64 0 0 1 -64-64v-80a0 0 0 0 1 0 0z" fill="#c3c6c7"/><path d="m368 312h-304a16 16 0 0 1 -16-16 16 16 0 0 1 16-16h304a16 16 0 0 1 16 16 16 16 0 0 1 -16 16z" fill="#e9eef2"/><path d="m304 200h128a0 0 0 0 1 0 0v16a16 16 0 0 1 -16 16h-112a0 0 0 0 1 0 0v-32a0 0 0 0 1 0 0z" fill="#a82a27"/><path d="m336 88h64a32 32 0 0 1 32 32v16a16 16 0 0 1 -16 16h-96a16 16 0 0 1 -16-16v-16a32 32 0 0 1 32-32z" fill="#e9eef2"/><path d="m184 168a8 8 0 0 1 -8 8h-48v-16h48a8 8 0 0 1 8 8z" fill="#a82a27"/><path d="m184 136a8 8 0 0 1 -8 8h-48v-16h48a8 8 0 0 1 8 8z" fill="#a82a27"/><g fill="#e9eef2"><circle cx="272" cy="88" r="8"/><circle cx="240" cy="88" r="8"/><circle cx="208" cy="88" r="8"/><path d="m208 24h16a16 16 0 0 1 16 16v16a0 0 0 0 1 0 0h-48a0 0 0 0 1 0 0v-16a16 16 0 0 1 16-16z"/></g><path d="m160 248h16v160h-16z" fill="#dadcde"/><path d="m184 416h-32a24.028 24.028 0 0 1 -24-24v-48a40 40 0 0 1 80 0v48a24.028 24.028 0 0 1 -24 24zm-16-96a24.028 24.028 0 0 0 -24 24v48a8.009 8.009 0 0 0 8 8h32a8.009 8.009 0 0 0 8-8v-48a24.028 24.028 0 0 0 -24-24z" fill="#e9eef2"/><path d="m256 248h16v160h-16z" fill="#dadcde"/><path d="m280 416h-32a24.028 24.028 0 0 1 -24-24v-48a40 40 0 0 1 80 0v48a24.028 24.028 0 0 1 -24 24zm-16-96a24.028 24.028 0 0 0 -24 24v48a8.009 8.009 0 0 0 8 8h32a8.009 8.009 0 0 0 8-8v-48a24.028 24.028 0 0 0 -24-24z" fill="#e9eef2"/></svg>