<svg id="Flat" height="512" viewBox="0 0 512 512" width="512" xmlns="http://www.w3.org/2000/svg"><path d="m56 88h32a0 0 0 0 1 0 0v64a0 0 0 0 1 0 0h-32a16 16 0 0 1 -16-16v-32a16 16 0 0 1 16-16z" fill="#c7312e"/><rect fill="#eb423f" height="48" rx="16" width="464" x="24" y="440"/><path d="m152 24h256a64 64 0 0 1 64 64v64a16 16 0 0 1 -16 16h-352a16 16 0 0 1 -16-16v-64a64 64 0 0 1 64-64z" fill="#eb423f"/><path d="m88 104h384v32h-384z" fill="#e9eef2"/><path d="m120 168h112v32h-112z" fill="#c3c6c7"/><path d="m448 216h-96l-24-16v-32h128v32z" fill="#c7312e"/><path d="m454.111 392h-102.111l-32.791 9.369a32 32 0 0 0 -23.209 30.769v7.862h176v-32l-3.578-7.155a16 16 0 0 0 -14.311-8.845z" fill="#c7312e"/><path d="m448 392h-96v-176h96s-16 40-16 88c0 56 16 88 16 88z" fill="#eb423f"/><g fill="#e9eef2"><path d="m152 200h48v32h-48z"/><circle cx="408" cy="72" r="8"/><circle cx="376" cy="72" r="8"/><circle cx="344" cy="72" r="8"/></g><path d="m48 296h256a0 0 0 0 1 0 0v48a96 96 0 0 1 -96 96h-64a96 96 0 0 1 -96-96v-48a0 0 0 0 1 0 0z" fill="#dadcde"/><path d="m304 296h-256a16 16 0 0 1 -16-16 16 16 0 0 1 16-16h256a16 16 0 0 1 16 16 16 16 0 0 1 -16 16z" fill="#e9eef2"/><path d="m168 232h16v32h-16z" fill="#c3c6c7"/></svg>