<svg id="Flat" height="512" viewBox="0 0 512 512" width="512" xmlns="http://www.w3.org/2000/svg"><path d="m72 88h368a16 16 0 0 1 16 16v112a0 0 0 0 1 0 0h-400a0 0 0 0 1 0 0v-112a16 16 0 0 1 16-16z" fill="#dadcde"/><path d="m72 88h368a16 16 0 0 1 16 16v48a32 32 0 0 1 -32 32h-336a32 32 0 0 1 -32-32v-48a16 16 0 0 1 16-16z" fill="#e9eef2"/><g fill="#c3c6c7"><circle cx="104" cy="136" r="16"/><circle cx="168" cy="136" r="16"/><circle cx="344" cy="136" r="16"/><circle cx="408" cy="136" r="16"/></g><path d="m216 120h80v32h-80z" fill="#7e8589"/><path d="m56 216h400v272h-400z" fill="#e9eef2"/><path d="m88 248h336v192h-336z" fill="#7e8589"/><path d="m411.508 24h-311.016a16 16 0 0 0 -15.522 12.119l-12.97 51.881h368l-12.97-51.881a16 16 0 0 0 -15.522-12.119z" fill="#dadcde"/><path d="m152 56h208v32h-208z" fill="#7e8589"/><circle cx="392" cy="72" fill="#7e8589" r="8"/><circle cx="120" cy="72" fill="#7e8589" r="8"/><path d="m424 312h-336v-64l3.882 3.882a96 96 0 0 0 67.883 28.118h192.47a96 96 0 0 0 67.883-28.118l3.882-3.882z" fill="#c3c6c7"/></svg>