<svg id="Flat" height="512" viewBox="0 0 512 512" width="512" xmlns="http://www.w3.org/2000/svg"><path d="m152 184a128 128 0 0 1 128 128 96 96 0 0 1 -96 96h-64a96 96 0 0 1 -96-96 128 128 0 0 1 128-128z" fill="#e0b999"/><path d="m248 312a64 64 0 0 1 -64 64v-32a32 32 0 0 0 32-32 64 64 0 0 0 -64-64 64 64 0 0 0 -64 64 32 32 0 0 0 32 32 32 32 0 0 0 32-32h-16v-32h16a32 32 0 0 1 32 32 64 64 0 0 1 -64 64 64 64 0 0 1 -64-64 96 96 0 0 1 96-96 96 96 0 0 1 96 96z" fill="#b37a60"/><path d="m296 24a128 128 0 0 1 128 128 96 96 0 0 1 -96 96h-64a96 96 0 0 1 -96-96 128 128 0 0 1 128-128z" fill="#f7cca9"/><path d="m392 152a64 64 0 0 1 -64 64v-32a32 32 0 0 0 32-32 64 64 0 0 0 -64-64 64 64 0 0 0 -64 64 32 32 0 0 0 32 32 32 32 0 0 0 32-32h-16v-32h16a32 32 0 0 1 32 32 64 64 0 0 1 -64 64 64 64 0 0 1 -64-64 96 96 0 0 1 96-96 96 96 0 0 1 96 96z" fill="#b37a60"/><path d="m360 264a128 128 0 0 1 128 128 96 96 0 0 1 -96 96h-64a96 96 0 0 1 -96-96 128 128 0 0 1 128-128z" fill="#f7cca9"/><path d="m456 392a64 64 0 0 1 -64 64v-32a32 32 0 0 0 32-32 64 64 0 0 0 -64-64 64 64 0 0 0 -64 64 32 32 0 0 0 32 32 32 32 0 0 0 32-32h-16v-32h16a32 32 0 0 1 32 32 64 64 0 0 1 -64 64 64 64 0 0 1 -64-64 96 96 0 0 1 96-96 96 96 0 0 1 96 96z" fill="#b37a60"/></svg>