<svg id="Flat" height="512" viewBox="0 0 512 512" width="512" xmlns="http://www.w3.org/2000/svg"><path d="m24 352h464v32h-464z" fill="#8c5237"/><path d="m432 352h-352l-32-64h416z" fill="#c7312e"/><path d="m112 144h288a64 64 0 0 1 64 64v32a0 0 0 0 1 0 0h-416a0 0 0 0 1 0 0v-32a64 64 0 0 1 64-64z" fill="#966651"/><path d="m112 128h32v112h-32z" fill="#b37a60"/><path d="m176 128h32v112h-32z" fill="#d49073"/><path d="m240 128h32v112h-32z" fill="#b37a60"/><path d="m368 128h32v112h-32z" fill="#b37a60"/><path d="m304 128h32v112h-32z" fill="#d49073"/><path d="m176 176v32h-128a63.64 63.64 0 0 1 8.56-32z" fill="#c48669"/><path d="m208 176h96v32h-96z" fill="#c48669"/><path d="m464 208h-128v-32h119.44a63.64 63.64 0 0 1 8.56 32z" fill="#c48669"/><path d="m472 288h-432a16 16 0 0 1 -16-16 16 16 0 0 1 16-16h432a16 16 0 0 1 16 16 16 16 0 0 1 -16 16z" fill="#eb423f"/><path d="m80 144a32 32 0 0 0 -32 32v64h32z" fill="#d49073"/><path d="m432 144a32 32 0 0 1 32 32v64h-32z" fill="#d49073"/><path d="m192 208a32 32 0 0 1 32 32v16h-64v-16a32 32 0 0 1 32-32z" fill="#b37a60"/><path d="m256 208a32 32 0 0 1 32 32v16h-64v-16a32 32 0 0 1 32-32z" fill="#d49073"/><g fill="#b37a60"><path d="m320 208a32 32 0 0 1 32 32v16h-64v-16a32 32 0 0 1 32-32z"/><path d="m64 208a32 32 0 0 1 32 32v16h-56l-8-16a32 32 0 0 1 32-32z"/><path d="m448 208a32 32 0 0 0 -32 32v16h56l8-16a32 32 0 0 0 -32-32z"/></g><path d="m128 208a32 32 0 0 1 32 32v16h-64v-16a32 32 0 0 1 32-32z" fill="#d49073"/><path d="m384 208a32 32 0 0 0 -32 32v16h64v-16a32 32 0 0 0 -32-32z" fill="#d49073"/></svg>