<svg id="Flat" height="512" viewBox="0 0 512 512" width="512" xmlns="http://www.w3.org/2000/svg"><path d="m24 160h32v32h-32z" fill="#eb423f" transform="matrix(0 -1 1 0 -136 216)"/><rect fill="#eb423f" height="336" rx="32" width="384" x="104" y="88"/><path d="m456 136v240a15.66 15.66 0 0 1 -.87 5.19 15.988 15.988 0 0 1 -15.13 10.81h-288a15.988 15.988 0 0 1 -15.13-10.81 15.66 15.66 0 0 1 -.87-5.19v-240a15.66 15.66 0 0 1 .87-5.19 15.988 15.988 0 0 1 15.13-10.81h288a15.988 15.988 0 0 1 15.13 10.81 15.66 15.66 0 0 1 .87 5.19z" fill="#a82a27"/><g fill="#c7312e"><path d="m55.999 224h48.001v-32h-80z"/><path d="m24 160h80v-32h-48.001z"/><path d="m456 136a15.66 15.66 0 0 0 -.87-5.19l-23.36 23.36-33.94-33.94.23-.23h-23.1l.23.23-33.94 33.94-33.93-33.93.24-.24h-23.12l.24.24-33.93 33.93-33.94-33.94.23-.23h-23.1l.23.23-33.94 33.94-23.36-23.36a15.66 15.66 0 0 0 -.87 5.19v16.58l12.91 12.91-12.91 12.91v22.64l24.23-24.23 33.94 33.94-33.93 33.93-24.24-24.24v22.64l12.92 12.92-12.92 12.92v22.64l24.24-24.24 33.93 33.93-33.94 33.94-24.23-24.23v22.64l12.91 12.91-12.91 12.91v16.58a15.66 15.66 0 0 0 .87 5.19l23.36-23.36 33.94 33.94-.23.23h23.1l-.23-.23 33.94-33.94 33.93 33.93-.24.24h23.12l-.24-.24 33.93-33.93 33.94 33.94-.23.23h23.1l-.23-.23 33.94-33.94 23.36 23.36a15.66 15.66 0 0 0 .87-5.19v-16.58l-12.91-12.91 12.91-12.91v-22.64l-24.23 24.23-33.94-33.94 33.93-33.93 24.24 24.24v-22.64l-12.92-12.92 12.92-12.92v-22.64l-24.24 24.24-33.93-33.93 33.94-33.94 24.23 24.23v-22.64l-12.91-12.91 12.91-12.91zm-160-4.44 33.93 33.93-33.93 33.93-33.93-33.93zm0 158.38-33.94-33.94 33.94-33.94 33.94 33.94zm45.26-22.62 33.93 33.93-33.94 33.94-33.93-33.93zm-90.52 0 33.94 33.94-33.93 33.93-33.94-33.94zm0-22.64-33.93-33.93 33.94-33.94 33.93 33.93zm56.58-33.94 33.93-33.93 33.94 33.94-33.93 33.93zm-135.77-45.25 33.94-33.94 33.94 33.94-33.94 33.94zm.01 90.51 33.93-33.93 33.93 33.93-33.93 33.93zm33.93 124.45-33.94-33.94 33.94-33.94 33.94 33.94zm56.58-33.94 33.93-33.93 33.93 33.93-33.93 33.93zm158.38 0-33.94 33.94-33.94-33.94 33.94-33.94zm-.01-90.51-33.93 33.93-33.93-33.93 33.93-33.93zm-33.93-56.57-33.94-33.94 33.94-33.94 33.94 33.94z"/></g></svg>