<svg id="Flat" height="512" viewBox="0 0 512 512" width="512" xmlns="http://www.w3.org/2000/svg"><path d="m136 120v96h32v-96a32 32 0 0 1 32-32h48a32 32 0 0 1 32 32v160a32 32 0 0 1 -32 32h-96v32h96a64 64 0 0 0 64-64v-160a64 64 0 0 0 -64-64h-48a64 64 0 0 0 -64 64z" fill="#966651"/><path d="m136 56h-48a64 64 0 0 0 -64 64v160a64 64 0 0 0 64 64h64v-32h-64a32 32 0 0 1 -32-32v-160a32 32 0 0 1 32-32h48a32 32 0 0 1 32 32v96a32 32 0 0 1 -32 32h-32v32h32a64 64 0 0 0 64-64v-96a64 64 0 0 0 -64-64z" fill="#966651"/><g fill="#b37a60"><path d="m168 216v-96a32 32 0 0 0 -32-32v128a64 64 0 0 0 64 64h32v-32h-32a32 32 0 0 1 -32-32z"/><path d="m312 232v96h32v-96a32 32 0 0 1 32-32h48a32 32 0 0 1 32 32v160a32 32 0 0 1 -32 32h-96v32h96a64 64 0 0 0 64-64v-160a64 64 0 0 0 -64-64h-48a64 64 0 0 0 -64 64z"/><path d="m312 168h-48a64 64 0 0 0 -64 64v160a64 64 0 0 0 64 64h64v-32h-64a32 32 0 0 1 -32-32v-160a32 32 0 0 1 32-32h48a32 32 0 0 1 32 32v96a32 32 0 0 1 -32 32h-32v32h32a64 64 0 0 0 64-64v-96a64 64 0 0 0 -64-64z"/></g><path d="m344 328v-96a32 32 0 0 0 -32-32v128a64 64 0 0 0 64 64h32v-32h-32a32 32 0 0 1 -32-32z" fill="#d49073"/></svg>