<svg id="Flat" height="512" viewBox="0 0 512 512" width="512" xmlns="http://www.w3.org/2000/svg"><path d="m120 208h272a96 96 0 0 1 96 96 64 64 0 0 1 -64 64h-336a64 64 0 0 1 -64-64 96 96 0 0 1 96-96z" fill="#b37a60"/><path d="m152 368h-64a64 64 0 0 1 -64-64 96 96 0 0 1 96-96 96 96 0 0 1 96 96 64 64 0 0 1 -64 64z" fill="#f7cca9"/><path d="m24 368h464v32h-464z" fill="#8c5237"/><path d="m120 192a16 16 0 0 0 16 16h80a16 16 0 0 1 16 16v16a16 16 0 0 0 16 16 16 16 0 0 0 16-16v-16a16 16 0 0 1 16-16 16 16 0 0 1 16 16v16a16 16 0 0 0 16 16 16 16 0 0 0 16-16v-16a16 16 0 0 1 16-16 16 16 0 0 1 16 16v16a16 16 0 0 0 16 16 16 16 0 0 0 16-16v-48a16 16 0 0 0 -16-16h-240a16 16 0 0 0 -16 16z" fill="#734b39"/><path d="m192 155.08v4.92a16 16 0 0 1 -16 16h-32a16 16 0 0 1 -16-16v-4.92a16.126 16.126 0 0 1 1.14-5.94l10.84-27.08a15.989 15.989 0 0 1 14.85-10.06h10.34a15.989 15.989 0 0 1 14.85 10.06l10.84 27.08a16.126 16.126 0 0 1 1.14 5.94z" fill="#eb423f"/><path d="m168 160v16h-16v-16a8 8 0 0 1 16 0z" fill="#c7312e"/><path d="m288 155.08v4.92a16 16 0 0 1 -16 16h-32a16 16 0 0 1 -16-16v-4.92a16.126 16.126 0 0 1 1.14-5.94l10.84-27.08a15.989 15.989 0 0 1 14.85-10.06h10.34a15.989 15.989 0 0 1 14.85 10.06l10.84 27.08a16.126 16.126 0 0 1 1.14 5.94z" fill="#eb423f"/><path d="m264 160v16h-16v-16a8 8 0 0 1 16 0z" fill="#c7312e"/><path d="m384 155.08v4.92a16 16 0 0 1 -16 16h-32a16 16 0 0 1 -16-16v-4.92a16.126 16.126 0 0 1 1.14-5.94l10.84-27.08a15.989 15.989 0 0 1 14.85-10.06h10.34a15.989 15.989 0 0 1 14.85 10.06l10.84 27.08a16.126 16.126 0 0 1 1.14 5.94z" fill="#eb423f"/><path d="m360 160v16h-16v-16a8 8 0 0 1 16 0z" fill="#c7312e"/><path d="m392 160h16a32 32 0 0 1 32 32v16a0 0 0 0 1 0 0h-16a32 32 0 0 1 -32-32v-16a0 0 0 0 1 0 0z" fill="#cfdb8c" transform="matrix(0 1 -1 0 600 -232)"/><circle cx="304" cy="160" fill="#c7312e" r="16"/><circle cx="208" cy="160" fill="#c7312e" r="16"/><path d="m216 304a64 64 0 0 1 -64 64v-32a32 32 0 0 0 32-32 64 64 0 0 0 -64-64 64 64 0 0 0 -64 64 32 32 0 0 0 32 32 32 32 0 0 0 32-32h-16v-32h16a32 32 0 0 1 32 32 64 64 0 0 1 -64 64 64 64 0 0 1 -64-64 96 96 0 0 1 96-96 96 96 0 0 1 96 96z" fill="#966651"/><g fill="#d49073"><circle cx="440" cy="320" r="8"/><circle cx="408" cy="320" r="8"/><circle cx="440" cy="288" r="8"/></g></svg>