<svg id="Flat" height="512" viewBox="0 0 512 512" width="512" xmlns="http://www.w3.org/2000/svg"><path d="m184 192h144a96 96 0 0 1 96 96v16a32 32 0 0 1 -32 32h-272a32 32 0 0 1 -32-32v-16a96 96 0 0 1 96-96z" fill="#f7cca9"/><rect fill="#b37a60" height="128" rx="16" width="272" x="120" y="144"/><g fill="#966651"><path d="m96 176-8 16h-16a16 16 0 0 0 -16-16h-16a32 32 0 0 0 -32 32 32 32 0 0 0 32 32h16a16 16 0 0 0 16-16h16l8 16h24v-64z"/><path d="m416 240 8-16h16a16 16 0 0 0 16 16h16a32 32 0 0 0 32-32 32 32 0 0 0 -32-32h-16a16 16 0 0 0 -16 16h-16l-8-16h-24v64z"/><path d="m144 144h16v128h-16z"/><path d="m352 144h16v128h-16z"/></g><path d="m8 336h496v32h-496z" fill="#8c5237"/><path d="m360 288a64 64 0 0 0 -64-64h-80a64 64 0 0 0 -64 64" fill="#f7cca9"/><circle cx="312" cy="304" fill="#d49073" r="8"/><circle cx="280" cy="304" fill="#d49073" r="8"/><circle cx="312" cy="272" fill="#d49073" r="8"/></svg>