<svg id="Flat" height="512" viewBox="0 0 512 512" width="512" xmlns="http://www.w3.org/2000/svg"><rect fill="#b37a60" height="128" rx="16" width="272" x="120" y="192"/><g fill="#966651"><path d="m96 224-8 16h-16a16 16 0 0 0 -16-16h-16a32 32 0 0 0 -32 32 32 32 0 0 0 32 32h16a16 16 0 0 0 16-16h16l8 16h24v-64z"/><path d="m416 288 8-16h16a16 16 0 0 0 16 16h16a32 32 0 0 0 32-32 32 32 0 0 0 -32-32h-16a16 16 0 0 0 -16 16h-16l-8-16h-24v64z"/><path d="m144 192h16v128h-16z"/><path d="m352 192h16v128h-16z"/></g></svg>