<svg id="Flat" height="512" viewBox="0 0 512 512" width="512" xmlns="http://www.w3.org/2000/svg"><path d="m56 104h400a0 0 0 0 1 0 0v32a64 64 0 0 1 -64 64h-272a64 64 0 0 1 -64-64v-32a0 0 0 0 1 0 0z" fill="#b37a60" transform="matrix(-1 0 0 -1 512 304)"/><path d="m152 136h208a96 96 0 0 1 96 96 64 64 0 0 1 -64 64h-272a64 64 0 0 1 -64-64 96 96 0 0 1 96-96z" fill="#f7cca9" transform="matrix(-1 0 0 -1 512 432)"/><path d="m96 200 160-96 160 96z" fill="#ffb632"/><circle cx="152" cy="176" fill="#eb423f" r="40"/><circle cx="360" cy="176" fill="#eb423f" r="40"/><path d="m22 248c0-14.2 25.73-19.1 43.9-30.664 12.112-7.706 19.275-32.584 37.57-38.442 14.711-4.711 36 10.629 53.823 7.428 15.714-2.821 29.9-24.81 47.46-26.253 16.209-1.332 33.907 17.931 51.247 17.931s35.035-19.263 51.242-17.931c17.562 1.443 31.749 23.432 47.464 26.253 17.83 3.2 39.115-12.138 53.828-7.427 18.294 5.859 25.458 30.737 37.569 38.443 18.168 11.562 43.897 16.462 43.897 30.662s-25.73 19.1-43.9 30.664c-12.112 7.706-19.275 32.584-37.57 38.442-14.711 4.711-36-10.629-53.823-7.428-15.714 2.821-29.9 24.81-47.46 26.253-16.209 1.332-33.907-17.931-51.247-17.931s-35.035 19.263-51.242 17.931c-17.562-1.442-31.749-23.432-47.464-26.253-17.83-3.2-39.115 12.139-53.828 7.427-18.294-5.859-25.458-30.737-37.569-38.443-18.168-11.562-43.897-16.462-43.897-30.662z" fill="#cfdb8c"/><path d="m22 248c0-14.2 25.73-19.1 43.9-30.664 12.112-7.706 19.275-32.584 37.57-38.442 14.711-4.711 36 10.629 53.823 7.428 15.714-2.821 29.9-24.81 47.46-26.253 16.209-1.332 33.907 17.931 51.247 17.931s35.035-19.263 51.242-17.931c17.562 1.443 31.749 23.432 47.464 26.253 17.83 3.2 39.115-12.138 53.828-7.427 18.294 5.859 25.458 30.737 37.569 38.443 18.168 11.562 43.897 16.462 43.897 30.662s-25.73 19.1-43.9 30.664c-12.112 7.706-19.275 32.584-37.57 38.442-14.711 4.711-36-10.629-53.823-7.428-15.714 2.821-29.9 24.81-47.46 26.253-16.209 1.332-33.907-17.931-51.247-17.931s-35.035 19.263-51.242 17.931c-17.562-1.442-31.749-23.432-47.464-26.253-17.83-3.2-39.115 12.139-53.828 7.427-18.294-5.859-25.458-30.737-37.569-38.443-18.168-11.562-43.897-16.462-43.897-30.662z" fill="#cfdb8c"/><path d="m56 216h400a0 0 0 0 1 0 0v32a64 64 0 0 1 -64 64h-272a64 64 0 0 1 -64-64v-32a0 0 0 0 1 0 0z" fill="#d49073" transform="matrix(-1 0 0 -1 512 528)"/><path d="m152 248h208a96 96 0 0 1 96 96 64 64 0 0 1 -64 64h-272a64 64 0 0 1 -64-64 96 96 0 0 1 96-96z" fill="#f7cca9" transform="matrix(-1 0 0 -1 512 656)"/><path d="m304 376h32l32-96h-32z" fill="#b37a60"/><path d="m224 376h32l32-96h-32z" fill="#b37a60"/><path d="m144 376h32l32-96h-32z" fill="#b37a60"/><g fill="#d49073"><circle cx="136" cy="296" r="8"/><circle cx="104" cy="328" r="8"/><circle cx="104" cy="296" r="8"/><circle cx="376" cy="360" r="8"/><circle cx="408" cy="328" r="8"/><circle cx="408" cy="360" r="8"/></g></svg>