<svg id="Flat" height="512" viewBox="0 0 512 512" width="512" xmlns="http://www.w3.org/2000/svg"><path d="m232 104h48v112h-48z" fill="#a82a27"/><path d="m256 168a160 160 0 0 0 -160 160v160h320v-160a160 160 0 0 0 -160-160z" fill="#eb423f"/><path d="m416 328v160h-320v-160a159.27 159.27 0 0 1 24-84.32v60.32a136 136 0 0 0 272 0v-60.32a159.27 159.27 0 0 1 24 84.32z" fill="#c7312e"/><path d="m96 440h320v48h-320z" fill="#a82a27"/><path d="m88 56h336a0 0 0 0 1 0 0v16a32 32 0 0 1 -32 32h-272a32 32 0 0 1 -32-32v-16a0 0 0 0 1 0 0z" fill="#c7312e"/><path d="m360 304q0 4.035-.3 8a104.035 104.035 0 0 1 -95.7 95.7q-3.96.3-8 .3t-8-.3a104.035 104.035 0 0 1 -95.7-95.7q-.3-3.96-.3-8t.3-8a104.009 104.009 0 0 1 207.4 0q.3 3.96.3 8z" fill="#e9eef2"/><g fill="#c3c6c7"><path d="m264 376v31.7q-3.96.3-8 .3t-8-.3v-31.7a8 8 0 0 1 16 0z"/><path d="m192 304a8 8 0 0 1 -8 8h-31.7q-.3-3.96-.3-8t.3-8h31.7a8 8 0 0 1 8 8z"/><path d="m360 304q0 4.035-.3 8h-31.7a8 8 0 0 1 0-16h31.7q.3 3.96.3 8z"/></g><path d="m88 24h336v32h-336z" fill="#eb423f"/><path d="m256 200a16 16 0 0 0 -16 16v80h32v-80a16 16 0 0 0 -16-16z" fill="#7e8589"/><circle cx="256" cy="304" fill="#c3c6c7" r="24"/></svg>