<svg id="Flat" height="512" viewBox="0 0 512 512" width="512" xmlns="http://www.w3.org/2000/svg"><path d="m280 24h32a16 16 0 0 1 16 16v176a16 16 0 0 1 -16 16h-112a16 16 0 0 1 -16-16v-96a96 96 0 0 1 96-96z" fill="#eb423f"/><path d="m264 120a32 32 0 0 1 32 32v80h-64v-80a32 32 0 0 1 32-32z" fill="#c7312e"/><path d="m280 264 16-32h-64l16 32v80l-9.431 28.294a127.992 127.992 0 0 0 -6.569 40.477v43.229a32 32 0 0 0 32 32 32 32 0 0 0 32-32v-43.229a127.992 127.992 0 0 0 -6.569-40.477l-9.431-28.294z" fill="#e9eef2"/><circle cx="264" cy="456" fill="#dadcde" r="8"/></svg>