<svg id="Flat" height="512" viewBox="0 0 512 512" width="512" xmlns="http://www.w3.org/2000/svg"><path d="m56 328h112v112h-112z" fill="#e9eef2"/><path d="m56 440-32-32v-112l32 32z" fill="#c3c6c7"/><path d="m136 296h-112l32 32h112z" fill="#dadcde"/><path d="m200 328h112v112h-112z" fill="#e9eef2"/><path d="m200 440-32-32v-112l32 32z" fill="#c3c6c7"/><path d="m280 296h-112l32 32h112z" fill="#dadcde"/><path d="m344 328h112v112h-112z" fill="#e9eef2" transform="matrix(-1 0 0 -1 800 768)"/><path d="m456 440 32-32v-112l-32 32z" fill="#c3c6c7"/><path d="m376 296h112l-32 32h-112z" fill="#dadcde"/><path d="m104 216h112v112h-112z" fill="#e9eef2"/><path d="m104 328-32-32v-112l32 32z" fill="#c3c6c7"/><path d="m184 184h-112l32 32h112z" fill="#dadcde"/><path d="m152 104h112v112h-112z" fill="#e9eef2"/><path d="m264 216h112v112h-112z" fill="#e9eef2" transform="matrix(-1 0 0 -1 640 544)"/><path d="m376 328 32-32v-112l-32 32z" fill="#c3c6c7"/><g fill="#dadcde"><path d="m296 184h112l-32 32h-112z"/><circle cx="424" cy="408" r="8"/><circle cx="232" cy="376" r="8"/><circle cx="88" cy="376" r="8"/><circle cx="344" cy="248" r="8"/><circle cx="184" cy="136" r="8"/><circle cx="232" cy="408" r="8"/><circle cx="184" cy="248" r="8"/><circle cx="184" cy="280" r="8"/></g><path d="m264 216 32-32v-112l-32 32z" fill="#c3c6c7"/><path d="m184 72h112l-32 32h-112z" fill="#dadcde"/></svg>