<svg id="Flat" height="512" viewBox="0 0 512 512" width="512" xmlns="http://www.w3.org/2000/svg"><path d="m400 184h-288a64 64 0 0 0 -64 64v32l32 80h352l32-80v-32a64 64 0 0 0 -64-64z" fill="#734b39"/><path d="m320 136h16a32 32 0 0 1 32 32v16a0 0 0 0 1 0 0h-16a32 32 0 0 1 -32-32v-16a0 0 0 0 1 0 0z" fill="#cfdb8c" transform="matrix(0 1 -1 0 504 -184)"/><path d="m24 360h464v32h-464z" fill="#8c5237"/><path d="m256 232a32 32 0 0 1 32 32v96h-64v-96a32 32 0 0 1 32-32z" fill="#c48669"/><g fill="#d49073"><path d="m320 232a32 32 0 0 1 32 32v96h-64v-96a32 32 0 0 1 32-32z"/><path d="m192 232a32 32 0 0 1 32 32v96h-64v-96a32 32 0 0 1 32-32z"/><path d="m64 232a32 32 0 0 1 32 32l16 96h-40l-40-96a32 32 0 0 1 32-32z"/></g><path d="m128 232a32 32 0 0 1 32 32v96h-48l-16-96a32 32 0 0 1 32-32z" fill="#c48669"/><path d="m448 232a32 32 0 0 0 -32 32l-16 96h40l40-96a32 32 0 0 0 -32-32z" fill="#d49073"/><path d="m384 232a32 32 0 0 0 -32 32v96h48l16-96a32 32 0 0 0 -32-32z" fill="#c48669"/><circle cx="304" cy="168" fill="#c7312e" r="16"/><circle cx="304" cy="136" fill="#c7312e" r="16"/><circle cx="160" cy="168" fill="#c7312e" r="16"/><path d="m176 136h16a32 32 0 0 1 32 32v16a0 0 0 0 1 0 0h-16a32 32 0 0 1 -32-32v-16a0 0 0 0 1 0 0z" fill="#cfdb8c" transform="matrix(-1 0 0 -1 400 320)"/><path d="m288 163.08v4.92a16 16 0 0 1 -16 16h-32a16 16 0 0 1 -16-16v-4.92a16.126 16.126 0 0 1 1.14-5.94l10.84-27.08a15.989 15.989 0 0 1 14.85-10.06h10.34a15.989 15.989 0 0 1 14.85 10.06l10.84 27.08a16.126 16.126 0 0 1 1.14 5.94z" fill="#eb423f"/><path d="m264 168v16h-16v-16a8 8 0 0 1 16 0z" fill="#c7312e"/></svg>