<svg id="Flat" height="512" viewBox="0 0 512 512" width="512" xmlns="http://www.w3.org/2000/svg"><path d="m24 408h464v32h-464z" fill="#8c5237"/><path d="m152 232h224v176h-224z" fill="#d49073"/><path d="m328 200v-16a64 64 0 0 0 -64-64 64 64 0 0 0 -64 64v16a16 16 0 0 0 -16 16v144a16 16 0 0 0 16 16 16 16 0 0 0 16-16v-128h32v32a16 16 0 0 0 16 16 16 16 0 0 0 16-16v-32h32v32a16 16 0 0 0 16 16 16 16 0 0 0 16-16v-48a16 16 0 0 0 -16-16z" fill="#734b39"/><path d="m184 376v-16a64 64 0 0 0 -64-64 64 64 0 0 0 -64 64v16a16 16 0 0 0 -16 16 16 16 0 0 0 16 16h128a16 16 0 0 0 16-16 16 16 0 0 0 -16-16z" fill="#f7cca9"/><path d="m232 208h-24a8 8 0 0 1 0-16h24a8 8 0 0 1 0 16z" fill="#5e3d30"/><path d="m88 384h-24a8 8 0 0 1 0-16h24a8 8 0 0 1 0 16z" fill="#e0b999"/><path d="m264 72h16a32 32 0 0 1 32 32v16a0 0 0 0 1 0 0h-16a32 32 0 0 1 -32-32v-16a0 0 0 0 1 0 0z" fill="#cfdb8c" transform="matrix(0 1 -1 0 384 -192)"/><path d="m216 72h16a32 32 0 0 1 32 32v16a0 0 0 0 1 0 0h-16a32 32 0 0 1 -32-32v-16a0 0 0 0 1 0 0z" fill="#cfdb8c" transform="matrix(-1 0 0 -1 480 192)"/><path d="m424 280-46.311 23.155a32 32 0 0 0 -17.689 28.622v12.223h64z" fill="#e9eef2"/><path d="m421.37 331.105-64 10.667a16 16 0 0 0 -13.37 15.782v18.446h96v-29.113a16 16 0 0 0 -18.63-15.782z" fill="#dadcde"/><path d="m454.408 361.759-128 12.8a16 16 0 0 0 -14.408 15.921v17.52h160v-30.32a16 16 0 0 0 -17.592-15.921z" fill="#e9eef2"/><g fill="#b37a60"><circle cx="280" cy="344" r="8"/><circle cx="248" cy="376" r="8"/><circle cx="248" cy="344" r="8"/></g></svg>