<svg id="Flat" height="512" viewBox="0 0 512 512" width="512" xmlns="http://www.w3.org/2000/svg"><path d="m152.235 138.177h271.529v203.647h-271.529z" fill="#b37a60" transform="matrix(.707 -.707 .707 .707 -85.352 273.941)"/><path d="m488 232-24-24-32 32-32-32 32-32-24-24-32 32-32-32 32-32-24-24-32 32-32-32 32-32-24-24-32 32-24-24-24 24 24 24-32 32-24-24-24 24 24 24-32 32-24-24-24 24 24 24-32 32 24 24 32-32 32 32-32 32 24 24 32-32 32 32-32 32 24 24 32-32 32 32-32 32 24 24 32-32 16 16 24-24-16-16 32-32 16 16 24-24-16-16 32-32 16 16 24-24-16-16zm-136-24-32 32-32-32 32-32zm-88-88 32 32-32 32-32-32zm-88 88 32-32 32 32-32 32zm56 56 32-32 32 32-32 32zm88 88-32-32 32-32 32 32zm56-56-32-32 32-32 32 32z" fill="#966651"/><path d="m80 200h208v256h-208z" fill="#b37a60"/><path d="m344 264v-32h-24v-48h-32v48h-48v-48h-32v48h-48v-48h-32v48h-48v-48h-32v48h-24v32h24v48h-24v32h24v48h-24v32h24v48h32v-48h48v48h32v-48h48v48h32v-48h48v48h32v-48h24v-32h-24v-48h24v-32h-24v-48zm-216 128h-48v-48h48zm0-80h-48v-48h48zm80 80h-48v-48h48zm0-80h-48v-48h48zm80 80h-48v-48h48zm0-80h-48v-48h48z" fill="#d49073"/></svg>