<svg id="Flat" height="512" viewBox="0 0 512 512" width="512" xmlns="http://www.w3.org/2000/svg"><path d="m24 160v80a32 32 0 0 0 32 32v128a16 16 0 0 0 16 16h368a16 16 0 0 0 16-16v-128a32 32 0 0 0 32-32v-80a64 64 0 0 0 -64-64h-336a64 64 0 0 0 -64 64z" fill="#b37a60"/><path d="m24 160v80a32 32 0 0 0 32 32v128a16 16 0 0 0 16 16h208a16 16 0 0 0 16-16v-128a32 32 0 0 0 32-32v-80a64 64 0 0 0 -64-64h-176a64 64 0 0 0 -64 64z" fill="#d49073"/><path d="m56 160v64a16 16 0 0 0 16 16h16v144h176v-144h16a16 16 0 0 0 16-16v-64a32 32 0 0 0 -32-32h-176a32 32 0 0 0 -32 32z" fill="#f7cca9"/><path d="m448 280h-56a8 8 0 0 1 0-16h56a8 8 0 0 1 0 16z" fill="#966651"/><g fill="#d49073"><circle cx="232" cy="304" r="8"/><circle cx="232" cy="352" r="8"/><circle cx="184" cy="352" r="8"/></g></svg>